UnuarangaKuriero-Italic.ufo
<glyph name="elcyrillic" format="1">
  <advance width="1228"/>
  <unicode hex="043B"/>
  <outline>
    <contour>
      <point x="447" y="271" type="line" smooth="yes"/>
      <point x="430.333" y="175.667"/>
      <point x="397.667" y="103"/>
      <point x="349" y="53" type="curve" smooth="yes"/>
      <point x="300.333" y="3"/>
      <point x="230.333" y="-22"/>
      <point x="139" y="-22" type="curve" smooth="yes"/>
      <point x="57" y="-22"/>
      <point x="-1.33333" y="-1.66667"/>
      <point x="-36" y="39" type="curve" smooth="yes"/>
      <point x="-41.3333" y="44.3333"/>
      <point x="-44.1667" y="51.5"/>
      <point x="-44.5" y="60.5" type="curve" smooth="yes"/>
      <point x="-44.8333" y="69.5"/>
      <point x="-44.3333" y="79.3333"/>
      <point x="-43" y="90" type="curve" smooth="yes"/>
      <point x="-22" y="205" type="line" smooth="yes"/>
      <point x="-18" y="228.333"/>
      <point x="-9.66667" y="245"/>
      <point x="3" y="255" type="curve" smooth="yes"/>
      <point x="15.6667" y="265"/>
      <point x="36" y="270"/>
      <point x="64" y="270" type="curve" smooth="yes"/>
      <point x="92" y="270"/>
      <point x="110.667" y="265"/>
      <point x="120" y="255" type="curve" smooth="yes"/>
      <point x="129.333" y="245"/>
      <point x="132" y="228.333"/>
      <point x="128" y="205" type="curve" smooth="yes"/>
      <point x="116" y="141" type="line"/>
      <point x="122" y="135.667"/>
      <point x="128.667" y="131.5"/>
      <point x="136" y="128.5" type="curve" smooth="yes"/>
      <point x="143.333" y="125.5"/>
      <point x="152.667" y="124"/>
      <point x="164" y="124" type="curve" smooth="yes"/>
      <point x="204" y="124"/>
      <point x="234.333" y="137.333"/>
      <point x="255" y="164" type="curve" smooth="yes"/>
      <point x="275.667" y="190.667"/>
      <point x="290.667" y="230.667"/>
      <point x="300" y="284" type="curve" smooth="yes"/>
      <point x="388" y="788" type="line"/>
      <point x="306" y="788" type="line" smooth="yes"/>
      <point x="283.333" y="788"/>
      <point x="268" y="793"/>
      <point x="260" y="803" type="curve" smooth="yes"/>
      <point x="252" y="813"/>
      <point x="250.333" y="830.667"/>
      <point x="255" y="856" type="curve" smooth="yes"/>
      <point x="259.667" y="881.333"/>
      <point x="267.667" y="899"/>
      <point x="279" y="909" type="curve" smooth="yes"/>
      <point x="290.333" y="919"/>
      <point x="307" y="924"/>
      <point x="330" y="924" type="curve" smooth="yes"/>
      <point x="1033" y="924" type="line" smooth="yes"/>
      <point x="1078" y="924"/>
      <point x="1092.82" y="906.031"/>
      <point x="1084" y="856" type="curve" smooth="yes"/>
      <point x="957" y="136" type="line"/>
      <point x="1039" y="136" type="line" smooth="yes"/>
      <point x="1084" y="136"/>
      <point x="1099" y="118"/>
      <point x="1090" y="68" type="curve" smooth="yes"/>
      <point x="1082" y="18"/>
      <point x="1061" y="0"/>
      <point x="1016" y="0" type="curve" smooth="yes"/>
      <point x="847" y="0" type="line" smooth="yes"/>
      <point x="802" y="0"/>
      <point x="786.175" y="17.9691"/>
      <point x="795" y="68" type="curve" smooth="yes"/>
      <point x="922" y="788" type="line"/>
      <point x="538" y="788" type="line"/>
    </contour>
  </outline>
</glyph>
<glyph name="emcyrillic" format="1">
  <advance width="1228"/>
  <unicode hex="043C"/>
  <outline>
    <contour>
      <point x="657" y="225" type="line" smooth="yes"/>
      <point x="648.593" y="212.268"/>
      <point x="638.833" y="202.5"/>
      <point x="626.5" y="195.5" type="curve" smooth="yes"/>
      <point x="614.167" y="188.5"/>
      <point x="597.667" y="185"/>
      <point x="577" y="185" type="curve" smooth="yes"/>
      <point x="555" y="185"/>
      <point x="538.5" y="189.667"/>
      <point x="527.5" y="199" type="curve" smooth="yes"/>
      <point x="516.5" y="208.333"/>
      <point x="508.955" y="218.986"/>
      <point x="505" y="232" type="curve" smooth="yes"/>
      <point x="364" y="696" type="line"/>
      <point x="251" y="55" type="line" smooth="yes"/>
      <point x="242.894" y="9.01867"/>
      <point x="219" y="-10"/>
      <point x="166" y="-10" type="curve" smooth="yes"/>
      <point x="164" y="-10" type="line" smooth="yes"/>
      <point x="108" y="-10"/>
      <point x="93" y="9"/>
      <point x="101" y="55" type="curve" smooth="yes"/>
      <point x="230" y="788" type="line"/>
      <point x="148" y="788" type="line" smooth="yes"/>
      <point x="125" y="788"/>
      <point x="110" y="793"/>
      <point x="102" y="803" type="curve" smooth="yes"/>
      <point x="94" y="813"/>
      <point x="92.3333" y="830.667"/>
      <point x="97" y="856" type="curve" smooth="yes"/>
      <point x="101.667" y="881.333"/>
      <point x="109.667" y="899"/>
      <point x="121" y="909" type="curve" smooth="yes"/>
      <point x="132.333" y="919"/>
      <point x="149.333" y="924"/>
      <point x="172" y="924" type="curve" smooth="yes"/>
      <point x="382" y="924" type="line" smooth="yes"/>
      <point x="410.667" y="924"/>
      <point x="432" y="918.833"/>
      <point x="446" y="908.5" type="curve" smooth="yes"/>
      <point x="460" y="898.167"/>
      <point x="470.333" y="881.667"/>
      <point x="477" y="859" type="curve" smooth="yes"/>
      <point x="615" y="395" type="line"/>
      <point x="915" y="859" type="line" smooth="yes"/>
      <point x="929" y="880.333"/>
      <point x="944.5" y="896.5"/>
      <point x="961.5" y="907.5" type="curve" smooth="yes"/>
      <point x="978.5" y="918.5"/>
      <point x="1001" y="924"/>
      <point x="1030" y="924" type="curve" smooth="yes"/>
      <point x="1095" y="924" type="line" smooth="yes"/>
      <point x="1140" y="924"/>
      <point x="1154.82" y="906.031"/>
      <point x="1146" y="856" type="curve" smooth="yes"/>
      <point x="1019" y="136" type="line"/>
      <point x="1111" y="136" type="line" smooth="yes"/>
      <point x="1134" y="136"/>
      <point x="1149" y="131"/>
      <point x="1157" y="121" type="curve" smooth="yes"/>
      <point x="1165" y="111"/>
      <point x="1166.67" y="93.3333"/>
      <point x="1162" y="68" type="curve" smooth="yes"/>
      <point x="1157.33" y="42.6667"/>
      <point x="1149.5" y="25"/>
      <point x="1138.5" y="15" type="curve" smooth="yes"/>
      <point x="1127.5" y="5"/>
      <point x="1111" y="-2.81669e-15"/>
      <point x="1088" y="0" type="curve" smooth="yes"/>
      <point x="909" y="0" type="line" smooth="yes"/>
      <point x="864.241" y="0"/>
      <point x="848.157" y="17.9722"/>
      <point x="857" y="68" type="curve" smooth="yes"/>
      <point x="968" y="696" type="line"/>
    </contour>
  </outline>
</glyph>
<glyph name="encyrillic" format="1">
  <advance width="1228"/>
  <unicode hex="043D"/>
  <outline>
    <contour>
      <point x="361" y="788" type="line"/>
      <point x="279" y="788" type="line" smooth="yes"/>
      <point x="256" y="788"/>
      <point x="241" y="793"/>
      <point x="233" y="803" type="curve" smooth="yes"/>
      <point x="225" y="813"/>
      <point x="224" y="831"/>
      <point x="228" y="856" type="curve" smooth="yes"/>
      <point x="232" y="881"/>
      <point x="241" y="899"/>
      <point x="252" y="909" type="curve" smooth="yes"/>
      <point x="263" y="919"/>
      <point x="280" y="924"/>
      <point x="303" y="924" type="curve" smooth="yes"/>
      <point x="472" y="924" type="line" smooth="yes"/>
      <point x="517" y="924"/>
      <point x="532" y="906"/>
      <point x="523" y="856" type="curve" smooth="yes"/>
      <point x="465" y="525" type="line"/>
      <point x="949" y="525" type="line"/>
      <point x="995" y="788" type="line"/>
      <point x="913" y="788" type="line" smooth="yes"/>
      <point x="890" y="788"/>
      <point x="875" y="793"/>
      <point x="867" y="803" type="curve" smooth="yes"/>
      <point x="859" y="813"/>
      <point x="858" y="831"/>
      <point x="862" y="856" type="curve" smooth="yes"/>
      <point x="866" y="881"/>
      <point x="875" y="899"/>
      <point x="886" y="909" type="curve" smooth="yes"/>
      <point x="897" y="919"/>
      <point x="914" y="924"/>
      <point x="937" y="924" type="curve" smooth="yes"/>
      <point x="1106" y="924" type="line" smooth="yes"/>
      <point x="1151" y="924"/>
      <point x="1165.82" y="906.031"/>
      <point x="1157" y="856" type="curve" smooth="yes"/>
      <point x="1030" y="136" type="line"/>
      <point x="1112" y="136" type="line" smooth="yes"/>
      <point x="1157" y="136"/>
      <point x="1172" y="118"/>
      <point x="1163" y="68" type="curve" smooth="yes"/>
      <point x="1155" y="18"/>
      <point x="1134" y="0"/>
      <point x="1089" y="0" type="curve" smooth="yes"/>
      <point x="920" y="0" type="line" smooth="yes"/>
      <point x="875" y="0"/>
      <point x="859.118" y="17.9791"/>
      <point x="868" y="68" type="curve" smooth="yes"/>
      <point x="925" y="389" type="line"/>
      <point x="441" y="389" type="line"/>
      <point x="382" y="55" type="line" smooth="yes"/>
      <point x="373.878" y="9.02154"/>
      <point x="350" y="-10"/>
      <point x="297" y="-10" type="curve" smooth="yes"/>
      <point x="295" y="-10" type="line" smooth="yes"/>
      <point x="239" y="-10"/>
      <point x="224" y="9"/>
      <point x="232" y="55" type="curve" smooth="yes"/>
    </contour>
  </outline>
</glyph>
<glyph name="checyrillic" format="1">
  <advance width="1228"/>
  <unicode hex="0447"/>
  <outline>
    <contour>
      <point x="208" y="856" type="curve" smooth="yes"/>
      <point x="212" y="881"/>
      <point x="221" y="899"/>
      <point x="232" y="909" type="curve" smooth="yes"/>
      <point x="243" y="919"/>
      <point x="260" y="924"/>
      <point x="283" y="924" type="curve" smooth="yes"/>
      <point x="452" y="924" type="line" smooth="yes"/>
      <point x="497" y="924"/>
      <point x="512" y="906"/>
      <point x="503" y="856" type="curve" smooth="yes"/>
      <point x="450" y="553" type="line" smooth="yes"/>
      <point x="441" y="504"/>
      <point x="451" y="467"/>
      <point x="480" y="440" type="curve" smooth="yes"/>
      <point x="509" y="413"/>
      <point x="553" y="399"/>
      <point x="614" y="399" type="curve" smooth="yes"/>
      <point x="680" y="399"/>
      <point x="740" y="408"/>
      <point x="793" y="426" type="curve" smooth="yes"/>
      <point x="846" y="444"/>
      <point x="897" y="471"/>
      <point x="945" y="504" type="curve"/>
      <point x="995" y="788" type="line"/>
      <point x="913" y="788" type="line" smooth="yes"/>
      <point x="890" y="788"/>
      <point x="875" y="793"/>
      <point x="867" y="803" type="curve" smooth="yes"/>
      <point x="859" y="813"/>
      <point x="858" y="831"/>
      <point x="862" y="856" type="curve" smooth="yes"/>
      <point x="866" y="881"/>
      <point x="875" y="899"/>
      <point x="886" y="909" type="curve" smooth="yes"/>
      <point x="897" y="919"/>
      <point x="914" y="924"/>
      <point x="937" y="924" type="curve" smooth="yes"/>
      <point x="1106" y="924" type="line" smooth="yes"/>
      <point x="1151" y="924"/>
      <point x="1166" y="906"/>
      <point x="1157" y="856" type="curve" smooth="yes"/>
      <point x="1030" y="136" type="line"/>
      <point x="1112" y="136" type="line" smooth="yes"/>
      <point x="1157" y="136"/>
      <point x="1172" y="118"/>
      <point x="1163" y="68" type="curve" smooth="yes"/>
      <point x="1155" y="18"/>
      <point x="1134" y="0"/>
      <point x="1089" y="0" type="curve" smooth="yes"/>
      <point x="920" y="0" type="line" smooth="yes"/>
      <point x="875" y="0"/>
      <point x="859" y="18"/>
      <point x="868" y="68" type="curve" smooth="yes"/>
      <point x="917" y="346" type="line"/>
      <point x="868" y="318"/>
      <point x="817" y="296"/>
      <point x="763" y="281" type="curve" smooth="yes"/>
      <point x="709" y="266"/>
      <point x="649" y="258"/>
      <point x="583" y="258" type="curve" smooth="yes"/>
      <point x="535" y="258"/>
      <point x="492" y="265"/>
      <point x="453" y="278" type="curve" smooth="yes"/>
      <point x="414" y="291"/>
      <point x="382" y="309"/>
      <point x="356" y="334" type="curve" smooth="yes"/>
      <point x="330" y="359"/>
      <point x="312" y="390"/>
      <point x="302" y="426" type="curve" smooth="yes"/>
      <point x="292" y="462"/>
      <point x="291" y="503"/>
      <point x="299" y="550" type="curve" smooth="yes"/>
      <point x="341" y="788" type="line"/>
      <point x="259" y="788" type="line" smooth="yes"/>
      <point x="236" y="788"/>
      <point x="221" y="793"/>
      <point x="213" y="803" type="curve" smooth="yes"/>
      <point x="205" y="813"/>
      <point x="204" y="831"/>
    </contour>
  </outline>
</glyph>
<glyph name="hardsigncyrillic" format="1">
  <advance width="1228"/>
  <unicode hex="044A"/>
  <outline>
    <contour>
      <point x="375" y="0" type="line" smooth="yes"/>
      <point x="330" y="0"/>
      <point x="314" y="18"/>
      <point x="323" y="68" type="curve" smooth="yes"/>
      <point x="450" y="788" type="line"/>
      <point x="325" y="788" type="line"/>
      <point x="284" y="554" type="line" smooth="yes"/>
      <point x="280" y="530.667"/>
      <point x="271.667" y="514"/>
      <point x="259" y="504" type="curve" smooth="yes"/>
      <point x="246.333" y="494"/>
      <point x="226" y="489"/>
      <point x="198" y="489" type="curve" smooth="yes"/>
      <point x="170" y="489"/>
      <point x="151.333" y="494"/>
      <point x="142" y="504" type="curve" smooth="yes"/>
      <point x="132.667" y="514"/>
      <point x="130" y="530.667"/>
      <point x="134" y="554" type="curve" smooth="yes"/>
      <point x="187" y="856" type="line" smooth="yes"/>
      <point x="191.667" y="881.333"/>
      <point x="199.667" y="899"/>
      <point x="211" y="909" type="curve" smooth="yes"/>
      <point x="222.333" y="919"/>
      <point x="239" y="924"/>
      <point x="262" y="924" type="curve" smooth="yes"/>
      <point x="561" y="924" type="line" smooth="yes"/>
      <point x="606" y="924"/>
      <point x="621" y="906"/>
      <point x="612" y="856" type="curve" smooth="yes"/>
      <point x="561" y="565" type="line"/>
      <point x="718" y="565" type="line" smooth="yes"/>
      <point x="770" y="565"/>
      <point x="818.5" y="560.333"/>
      <point x="863.5" y="551" type="curve" smooth="yes"/>
      <point x="908.5" y="541.667"/>
      <point x="946.667" y="526"/>
      <point x="978" y="504" type="curve" smooth="yes"/>
      <point x="1009.33" y="482"/>
      <point x="1032" y="452.833"/>
      <point x="1046" y="416.5" type="curve" smooth="yes"/>
      <point x="1060" y="380.167"/>
      <point x="1062.33" y="335.333"/>
      <point x="1053" y="282" type="curve" smooth="yes"/>
      <point x="1043.67" y="229.333"/>
      <point x="1025.67" y="185"/>
      <point x="999" y="149" type="curve" smooth="yes"/>
      <point x="972.333" y="113"/>
      <point x="939.5" y="84"/>
      <point x="900.5" y="62" type="curve" smooth="yes"/>
      <point x="861.5" y="40"/>
      <point x="817.833" y="24.1667"/>
      <point x="769.5" y="14.5" type="curve" smooth="yes"/>
      <point x="721.167" y="4.83333"/>
      <point x="671" y="-6.36816e-15"/>
      <point x="619" y="0" type="curve" smooth="yes"/>
    </contour>
    <contour>
      <point x="537" y="429" type="line"/>
      <point x="485" y="136" type="line"/>
      <point x="641" y="136" type="line" smooth="yes"/>
      <point x="673.667" y="136"/>
      <point x="704.5" y="138.667"/>
      <point x="733.5" y="144" type="curve" smooth="yes"/>
      <point x="762.5" y="149.333"/>
      <point x="788.167" y="157.833"/>
      <point x="810.5" y="169.5" type="curve" smooth="yes"/>
      <point x="832.833" y="181.167"/>
      <point x="851.333" y="196.167"/>
      <point x="866" y="214.5" type="curve" smooth="yes"/>
      <point x="880.667" y="232.833"/>
      <point x="890.333" y="255.333"/>
      <point x="895" y="282" type="curve" smooth="yes"/>
      <point x="899.667" y="310"/>
      <point x="898" y="333.333"/>
      <point x="890" y="352" type="curve" smooth="yes"/>
      <point x="882" y="370.667"/>
      <point x="869" y="385.833"/>
      <point x="851" y="397.5" type="curve" smooth="yes"/>
      <point x="833" y="409.167"/>
      <point x="810.333" y="417.333"/>
      <point x="783" y="422" type="curve" smooth="yes"/>
      <point x="755.667" y="426.667"/>
      <point x="725.667" y="429"/>
      <point x="693" y="429" type="curve" smooth="yes"/>
    </contour>
  </outline>
</glyph>
<glyph name="yericyrillic" format="1">
  <advance width="1228"/>
  <unicode hex="044B"/>
  <outline>
    <contour>
      <point x="1004" y="788" type="line"/>
      <point x="922" y="788" type="line" smooth="yes"/>
      <point x="899" y="788"/>
      <point x="884" y="793"/>
      <point x="876" y="803" type="curve" smooth="yes"/>
      <point x="868" y="813"/>
      <point x="867" y="831"/>
      <point x="871" y="856" type="curve" smooth="yes"/>
      <point x="875" y="881"/>
      <point x="884" y="899"/>
      <point x="895" y="909" type="curve" smooth="yes"/>
      <point x="906" y="919"/>
      <point x="923" y="924"/>
      <point x="946" y="924" type="curve" smooth="yes"/>
      <point x="1115" y="924" type="line" smooth="yes"/>
      <point x="1160" y="924"/>
      <point x="1174.82" y="906.031"/>
      <point x="1166" y="856" type="curve" smooth="yes"/>
      <point x="1039" y="136" type="line"/>
      <point x="1121" y="136" type="line" smooth="yes"/>
      <point x="1166" y="136"/>
      <point x="1181" y="118"/>
      <point x="1172" y="68" type="curve" smooth="yes"/>
      <point x="1164" y="18"/>
      <point x="1143" y="0"/>
      <point x="1098" y="0" type="curve" smooth="yes"/>
      <point x="929" y="0" type="line" smooth="yes"/>
      <point x="884" y="0"/>
      <point x="868.175" y="17.9688"/>
      <point x="877" y="68" type="curve" smooth="yes"/>
    </contour>
    <contour>
      <point x="297" y="429" type="line"/>
      <point x="245" y="136" type="line"/>
      <point x="401" y="136" type="line" smooth="yes"/>
      <point x="433.667" y="136"/>
      <point x="464.5" y="138.667"/>
      <point x="493.5" y="144" type="curve" smooth="yes"/>
      <point x="522.5" y="149.333"/>
      <point x="548.167" y="157.833"/>
      <point x="570.5" y="169.5" type="curve" smooth="yes"/>
      <point x="592.833" y="181.167"/>
      <point x="611.333" y="196.167"/>
      <point x="626" y="214.5" type="curve" smooth="yes"/>
      <point x="640.667" y="232.833"/>
      <point x="650.333" y="255.333"/>
      <point x="655" y="282" type="curve" smooth="yes"/>
      <point x="659.667" y="310"/>
      <point x="658" y="333.333"/>
      <point x="650" y="352" type="curve" smooth="yes"/>
      <point x="642" y="370.667"/>
      <point x="629" y="385.833"/>
      <point x="611" y="397.5" type="curve" smooth="yes"/>
      <point x="593" y="409.167"/>
      <point x="570.333" y="417.333"/>
      <point x="543" y="422" type="curve" smooth="yes"/>
      <point x="515.667" y="426.667"/>
      <point x="485.667" y="429"/>
      <point x="453" y="429" type="curve" smooth="yes"/>
    </contour>
    <contour>
      <point x="321" y="565" type="line"/>
      <point x="478" y="565" type="line" smooth="yes"/>
      <point x="530" y="565"/>
      <point x="578.5" y="560.333"/>
      <point x="623.5" y="551" type="curve" smooth="yes"/>
      <point x="668.5" y="541.667"/>
      <point x="706.667" y="526"/>
      <point x="738" y="504" type="curve" smooth="yes"/>
      <point x="769.333" y="482"/>
      <point x="792" y="452.833"/>
      <point x="806" y="416.5" type="curve" smooth="yes"/>
      <point x="820" y="380.167"/>
      <point x="822.333" y="335.333"/>
      <point x="813" y="282" type="curve" smooth="yes"/>
      <point x="803.667" y="229.333"/>
      <point x="785.667" y="185"/>
      <point x="759" y="149" type="curve" smooth="yes"/>
      <point x="732.333" y="113"/>
      <point x="699.5" y="84"/>
      <point x="660.5" y="62" type="curve" smooth="yes"/>
      <point x="621.5" y="40"/>
      <point x="577.833" y="24.1667"/>
      <point x="529.5" y="14.5" type="curve" smooth="yes"/>
      <point x="481.167" y="4.83333"/>
      <point x="431" y="-6.36816e-15"/>
      <point x="379" y="0" type="curve" smooth="yes"/>
      <point x="135" y="0" type="line" smooth="yes"/>
      <point x="90" y="0"/>
      <point x="74" y="18"/>
      <point x="83" y="68" type="curve" smooth="yes"/>
      <point x="210" y="788" type="line"/>
      <point x="168" y="788" type="line" smooth="yes"/>
      <point x="145" y="788"/>
      <point x="130" y="793"/>
      <point x="122" y="803" type="curve" smooth="yes"/>
      <point x="114" y="813"/>
      <point x="112.333" y="830.667"/>
      <point x="117" y="856" type="curve" smooth="yes"/>
      <point x="121.667" y="881.333"/>
      <point x="129.667" y="899"/>
      <point x="141" y="909" type="curve" smooth="yes"/>
      <point x="152.333" y="919"/>
      <point x="169" y="924"/>
      <point x="192" y="924" type="curve" smooth="yes"/>
      <point x="321" y="924" type="line" smooth="yes"/>
      <point x="366" y="924"/>
      <point x="381" y="906"/>
      <point x="372" y="856" type="curve" smooth="yes"/>
    </contour>
  </outline>
</glyph>
<glyph name="softsigncyrillic" format="1">
  <advance width="1228"/>
  <unicode hex="044C"/>
  <outline>
    <contour>
      <point x="417" y="429" type="line"/>
      <point x="365" y="136" type="line"/>
      <point x="641" y="136" type="line" smooth="yes"/>
      <point x="673.667" y="136"/>
      <point x="704.5" y="138.667"/>
      <point x="733.5" y="144" type="curve" smooth="yes"/>
      <point x="762.5" y="149.333"/>
      <point x="788.167" y="157.833"/>
      <point x="810.5" y="169.5" type="curve" smooth="yes"/>
      <point x="832.833" y="181.167"/>
      <point x="851.333" y="196.167"/>
      <point x="866" y="214.5" type="curve" smooth="yes"/>
      <point x="880.667" y="232.833"/>
      <point x="890.333" y="255.333"/>
      <point x="895" y="282" type="curve" smooth="yes"/>
      <point x="899.667" y="310"/>
      <point x="898" y="333.333"/>
      <point x="890" y="352" type="curve" smooth="yes"/>
      <point x="882" y="370.667"/>
      <point x="869" y="385.833"/>
      <point x="851" y="397.5" type="curve" smooth="yes"/>
      <point x="833" y="409.167"/>
      <point x="810.333" y="417.333"/>
      <point x="783" y="422" type="curve" smooth="yes"/>
      <point x="755.667" y="426.667"/>
      <point x="725.667" y="429"/>
      <point x="693" y="429" type="curve" smooth="yes"/>
    </contour>
    <contour>
      <point x="441" y="565" type="line"/>
      <point x="718" y="565" type="line" smooth="yes"/>
      <point x="770" y="565"/>
      <point x="818.5" y="560.333"/>
      <point x="863.5" y="551" type="curve" smooth="yes"/>
      <point x="908.5" y="541.667"/>
      <point x="946.667" y="526"/>
      <point x="978" y="504" type="curve" smooth="yes"/>
      <point x="1009.33" y="482"/>
      <point x="1032" y="452.833"/>
      <point x="1046" y="416.5" type="curve" smooth="yes"/>
      <point x="1060" y="380.167"/>
      <point x="1062.33" y="335.333"/>
      <point x="1053" y="282" type="curve" smooth="yes"/>
      <point x="1043.67" y="229.333"/>
      <point x="1025.67" y="185"/>
      <point x="999" y="149" type="curve" smooth="yes"/>
      <point x="972.333" y="113"/>
      <point x="939.5" y="84"/>
      <point x="900.5" y="62" type="curve" smooth="yes"/>
      <point x="861.5" y="40"/>
      <point x="817.833" y="24.1667"/>
      <point x="769.5" y="14.5" type="curve" smooth="yes"/>
      <point x="721.167" y="4.83333"/>
      <point x="671" y="-6.36816e-15"/>
      <point x="619" y="0" type="curve" smooth="yes"/>
      <point x="255" y="0" type="line" smooth="yes"/>
      <point x="210" y="0"/>
      <point x="194" y="18"/>
      <point x="203" y="68" type="curve" smooth="yes"/>
      <point x="330" y="788" type="line"/>
      <point x="248" y="788" type="line" smooth="yes"/>
      <point x="225" y="788"/>
      <point x="210" y="793"/>
      <point x="202" y="803" type="curve" smooth="yes"/>
      <point x="194" y="813"/>
      <point x="192.333" y="830.667"/>
      <point x="197" y="856" type="curve" smooth="yes"/>
      <point x="201.667" y="881.333"/>
      <point x="209.667" y="899"/>
      <point x="221" y="909" type="curve" smooth="yes"/>
      <point x="232.333" y="919"/>
      <point x="249" y="924"/>
      <point x="272" y="924" type="curve" smooth="yes"/>
      <point x="441" y="924" type="line" smooth="yes"/>
      <point x="486" y="924"/>
      <point x="501" y="906"/>
      <point x="492" y="856" type="curve" smooth="yes"/>
    </contour>
  </outline>
</glyph>
<glyph name="njecyrillic" format="1">
  <advance width="1228"/>
  <unicode hex="045A"/>
  <outline>
    <contour>
      <point x="210" y="788" type="line"/>
      <point x="168" y="788" type="line" smooth="yes"/>
      <point x="145" y="788"/>
      <point x="130" y="793"/>
      <point x="122" y="803" type="curve" smooth="yes"/>
      <point x="114" y="813"/>
      <point x="112.333" y="830.667"/>
      <point x="117" y="856" type="curve" smooth="yes"/>
      <point x="121.667" y="881.333"/>
      <point x="129.667" y="899"/>
      <point x="141" y="909" type="curve" smooth="yes"/>
      <point x="152.333" y="919"/>
      <point x="169" y="924"/>
      <point x="192" y="924" type="curve" smooth="yes"/>
      <point x="321" y="924" type="line" smooth="yes"/>
      <point x="366" y="924"/>
      <point x="381" y="906"/>
      <point x="372" y="856" type="curve" smooth="yes"/>
      <point x="314" y="525" type="line"/>
      <point x="631" y="525" type="line"/>
      <point x="677" y="788" type="line"/>
      <point x="635" y="788" type="line" smooth="yes"/>
      <point x="612.333" y="788"/>
      <point x="597" y="793"/>
      <point x="589" y="803" type="curve" smooth="yes"/>
      <point x="581" y="813"/>
      <point x="579.333" y="830.667"/>
      <point x="584" y="856" type="curve" smooth="yes"/>
      <point x="588.667" y="881.333"/>
      <point x="596.667" y="899"/>
      <point x="608" y="909" type="curve" smooth="yes"/>
      <point x="619.333" y="919"/>
      <point x="636" y="924"/>
      <point x="659" y="924" type="curve" smooth="yes"/>
      <point x="788" y="924" type="line" smooth="yes"/>
      <point x="833" y="924"/>
      <point x="847.768" y="906.041"/>
      <point x="839" y="856" type="curve" smooth="yes"/>
      <point x="781" y="525" type="line"/>
      <point x="898" y="525" type="line" smooth="yes"/>
      <point x="943" y="525"/>
      <point x="984" y="520.5"/>
      <point x="1022" y="511.5" type="curve" smooth="yes"/>
      <point x="1060" y="502.5"/>
      <point x="1092" y="487.833"/>
      <point x="1118" y="467.5" type="curve" smooth="yes"/>
      <point x="1144" y="447.167"/>
      <point x="1162.5" y="420.167"/>
      <point x="1173.5" y="386.5" type="curve" smooth="yes"/>
      <point x="1184.5" y="352.833"/>
      <point x="1185.67" y="311.333"/>
      <point x="1177" y="262" type="curve" smooth="yes"/>
      <point x="1168.33" y="212.667"/>
      <point x="1152.5" y="171.333"/>
      <point x="1129.5" y="138" type="curve" smooth="yes"/>
      <point x="1106.5" y="104.667"/>
      <point x="1078.5" y="77.8333"/>
      <point x="1045.5" y="57.5" type="curve" smooth="yes"/>
      <point x="1012.5" y="37.1667"/>
      <point x="975.5" y="22.5"/>
      <point x="934.5" y="13.5" type="curve" smooth="yes"/>
      <point x="893.5" y="4.5"/>
      <point x="851" y="-5.51091e-15"/>
      <point x="806" y="0" type="curve" smooth="yes"/>
      <point x="602" y="0" type="line" smooth="yes"/>
      <point x="557" y="0"/>
      <point x="541.118" y="17.9791"/>
      <point x="550" y="68" type="curve" smooth="yes"/>
      <point x="607" y="389" type="line"/>
      <point x="290" y="389" type="line"/>
      <point x="231" y="55" type="line" smooth="yes"/>
      <point x="223" y="9"/>
      <point x="199" y="-10"/>
      <point x="146" y="-10" type="curve" smooth="yes"/>
      <point x="144" y="-10" type="line" smooth="yes"/>
      <point x="88" y="-10"/>
      <point x="73" y="9"/>
      <point x="81" y="55" type="curve" smooth="yes"/>
    </contour>
    <contour>
      <point x="757" y="389" type="line"/>
      <point x="712" y="136" type="line"/>
      <point x="828" y="136" type="line" smooth="yes"/>
      <point x="852" y="136"/>
      <point x="874.667" y="138.167"/>
      <point x="896" y="142.5" type="curve" smooth="yes"/>
      <point x="917.333" y="146.833"/>
      <point x="936.333" y="154"/>
      <point x="953" y="164" type="curve" smooth="yes"/>
      <point x="969.667" y="174"/>
      <point x="983.833" y="187"/>
      <point x="995.5" y="203" type="curve" smooth="yes"/>
      <point x="1007.17" y="219"/>
      <point x="1015" y="238.667"/>
      <point x="1019" y="262" type="curve" smooth="yes"/>
      <point x="1023" y="286"/>
      <point x="1022.17" y="306.167"/>
      <point x="1016.5" y="322.5" type="curve" smooth="yes"/>
      <point x="1010.83" y="338.833"/>
      <point x="1001.33" y="351.833"/>
      <point x="988" y="361.5" type="curve" smooth="yes"/>
      <point x="974.667" y="371.167"/>
      <point x="958.167" y="378.167"/>
      <point x="938.5" y="382.5" type="curve" smooth="yes"/>
      <point x="918.833" y="386.833"/>
      <point x="897" y="389"/>
      <point x="873" y="389" type="curve" smooth="yes"/>
    </contour>
  </outline>
</glyph>
<glyph name="tshecyrillic" format="1">
  <advance width="1228"/>
  <unicode hex="045B"/>
  <outline>
    <contour>
      <point x="355" y="1096" type="line"/>
      <point x="369" y="1176" type="line"/>
      <point x="277" y="1176" type="line" smooth="yes"/>
      <point x="254.333" y="1176"/>
      <point x="239" y="1181"/>
      <point x="231" y="1191" type="curve" smooth="yes"/>
      <point x="223" y="1201"/>
      <point x="221.333" y="1218.67"/>
      <point x="226" y="1244" type="curve" smooth="yes"/>
      <point x="230.667" y="1269.33"/>
      <point x="238.667" y="1287"/>
      <point x="250" y="1297" type="curve" smooth="yes"/>
      <point x="261.333" y="1307"/>
      <point x="278.333" y="1312"/>
      <point x="301" y="1312" type="curve" smooth="yes"/>
      <point x="480" y="1312" type="line" smooth="yes"/>
      <point x="502.667" y="1312"/>
      <point x="518" y="1307"/>
      <point x="526" y="1297" type="curve" smooth="yes"/>
      <point x="534" y="1287"/>
      <point x="535.667" y="1269.33"/>
      <point x="531" y="1244" type="curve" smooth="yes"/>
      <point x="505" y="1096" type="line"/>
      <point x="698" y="1096" type="line" smooth="yes"/>
      <point x="720.667" y="1096"/>
      <point x="736" y="1091"/>
      <point x="744" y="1081" type="curve" smooth="yes"/>
      <point x="752" y="1071"/>
      <point x="753.667" y="1053.33"/>
      <point x="749" y="1028" type="curve" smooth="yes"/>
      <point x="744.333" y="1002.67"/>
      <point x="736.333" y="985"/>
      <point x="725" y="975" type="curve" smooth="yes"/>
      <point x="713.667" y="965"/>
      <point x="696.667" y="960"/>
      <point x="674" y="960" type="curve" smooth="yes"/>
      <point x="481" y="960" type="line"/>
      <point x="432" y="686" type="line"/>
      <point x="487.333" y="750.667"/>
      <point x="546.333" y="800.167"/>
      <point x="609" y="834.5" type="curve" smooth="yes"/>
      <point x="671.667" y="868.833"/>
      <point x="736.333" y="886"/>
      <point x="803" y="886" type="curve" smooth="yes"/>
      <point x="849" y="886"/>
      <point x="889" y="878.333"/>
      <point x="923" y="863" type="curve" smooth="yes"/>
      <point x="957" y="847.667"/>
      <point x="984.333" y="826"/>
      <point x="1005" y="798" type="curve" smooth="yes"/>
      <point x="1025.67" y="770"/>
      <point x="1039.17" y="735.833"/>
      <point x="1045.5" y="695.5" type="curve" smooth="yes"/>
      <point x="1051.83" y="655.167"/>
      <point x="1051" y="610"/>
      <point x="1042" y="560" type="curve" smooth="yes"/>
      <point x="967" y="136" type="line"/>
      <point x="1049" y="136" type="line" smooth="yes"/>
      <point x="1094" y="136"/>
      <point x="1109" y="118"/>
      <point x="1100" y="68" type="curve" smooth="yes"/>
      <point x="1092" y="18"/>
      <point x="1071" y="0"/>
      <point x="1026" y="0" type="curve" smooth="yes"/>
      <point x="857" y="0" type="line" smooth="yes"/>
      <point x="812" y="0"/>
      <point x="796.087" y="17.9844"/>
      <point x="805" y="68" type="curve" smooth="yes"/>
      <point x="890" y="545" type="line" smooth="yes"/>
      <point x="895" y="574"/>
      <point x="895.833" y="599.833"/>
      <point x="893.5" y="623.5" type="curve" smooth="yes"/>
      <point x="891.167" y="647.167"/>
      <point x="884.833" y="667.5"/>
      <point x="874.5" y="684.5" type="curve" smooth="yes"/>
      <point x="864.167" y="701.5"/>
      <point x="849.667" y="714.667"/>
      <point x="831" y="724" type="curve" smooth="yes"/>
      <point x="812.333" y="733.333"/>
      <point x="789.333" y="738"/>
      <point x="762" y="738" type="curve" smooth="yes"/>
      <point x="719.333" y="738"/>
      <point x="677" y="728.667"/>
      <point x="635" y="710" type="curve" smooth="yes"/>
      <point x="593" y="691.333"/>
      <point x="554.333" y="665.333"/>
      <point x="519" y="632" type="curve" smooth="yes"/>
      <point x="483.667" y="598.667"/>
      <point x="453.333" y="559"/>
      <point x="428" y="513" type="curve" smooth="yes"/>
      <point x="402.667" y="467"/>
      <point x="385" y="417"/>
      <point x="375" y="362" type="curve" smooth="yes"/>
      <point x="321" y="55" type="line" smooth="yes"/>
      <point x="312.912" y="9.01556"/>
      <point x="289" y="-10"/>
      <point x="236" y="-10" type="curve" smooth="yes"/>
      <point x="234" y="-10" type="line" smooth="yes"/>
      <point x="178" y="-10"/>
      <point x="162.871" y="9.02273"/>
      <point x="171" y="55" type="curve" smooth="yes"/>
      <point x="331" y="960" type="line"/>
      <point x="212" y="960" type="line" smooth="yes"/>
      <point x="189" y="960"/>
      <point x="174" y="965"/>
      <point x="166" y="975" type="curve" smooth="yes"/>
      <point x="158" y="985"/>
      <point x="156.333" y="1002.67"/>
      <point x="161" y="1028" type="curve" smooth="yes"/>
      <point x="165.667" y="1053.33"/>
      <point x="173.667" y="1071"/>
      <point x="185" y="1081" type="curve" smooth="yes"/>
      <point x="196.333" y="1091"/>
      <point x="213.333" y="1096"/>
      <point x="236" y="1096" type="curve" smooth="yes"/>
    </contour>
  </outline>
</glyph>
<glyph name="dzhecyrillic" format="1">
  <advance width="1228"/>
  <unicode hex="045F"/>
  <outline>
    <contour>
      <point x="804" y="925" type="curve" smooth="yes"/>
      <point x="1033" y="925" type="line" smooth="yes"/>
      <point x="1078" y="925"/>
      <point x="1093" y="907"/>
      <point x="1084" y="857" type="curve" smooth="yes"/>
      <point x="957" y="137" type="line"/>
      <point x="1039" y="137" type="line" smooth="yes"/>
      <point x="1084" y="137"/>
      <point x="1099" y="119"/>
      <point x="1090" y="69" type="curve" smooth="yes"/>
      <point x="1082" y="19"/>
      <point x="1061" y="1"/>
      <point x="1016" y="1" type="curve" smooth="yes"/>
      <point x="856" y="1" type="line" smooth="yes"/>
      <point x="811" y="1"/>
      <point x="796" y="19"/>
      <point x="805" y="69" type="curve" smooth="yes"/>
      <point x="826" y="189" type="line"/>
      <point x="762.294" y="111.642"/>
      <point x="693.087" y="54.3441"/>
      <point x="621.141" y="19.3138" type="curve"/>
      <point x="578" y="-224" type="line" smooth="yes"/>
      <point x="573.867" y="-247.308"/>
      <point x="565.667" y="-264"/>
      <point x="553" y="-274" type="curve" smooth="yes"/>
      <point x="540.333" y="-284"/>
      <point x="520" y="-289"/>
      <point x="492" y="-289" type="curve" smooth="yes"/>
      <point x="464" y="-289"/>
      <point x="445.333" y="-284"/>
      <point x="436" y="-274" type="curve" smooth="yes"/>
      <point x="426.667" y="-264"/>
      <point x="423.867" y="-247.308"/>
      <point x="428" y="-224" type="curve" smooth="yes"/>
      <point x="464.018" y="-20.8558" type="line"/>
      <point x="460.68" y="-20.9519"/>
      <point x="457.341" y="-21"/>
      <point x="454" y="-21" type="curve" smooth="yes"/>
      <point x="294" y="-21"/>
      <point x="199" y="81"/>
      <point x="199" y="239" type="curve" smooth="yes"/>
      <point x="199" y="263"/>
      <point x="201" y="289"/>
      <point x="206" y="315" type="curve" smooth="yes"/>
      <point x="290" y="789" type="line"/>
      <point x="208" y="789" type="line" smooth="yes"/>
      <point x="163" y="789"/>
      <point x="149" y="807"/>
      <point x="157" y="857" type="curve" smooth="yes"/>
      <point x="166" y="907"/>
      <point x="187" y="925"/>
      <point x="232" y="925" type="curve" smooth="yes"/>
      <point x="401" y="925" type="line" smooth="yes"/>
      <point x="446" y="925"/>
      <point x="461" y="907"/>
      <point x="452" y="857" type="curve" smooth="yes"/>
      <point x="357" y="320" type="line" smooth="yes"/>
      <point x="354" y="301"/>
      <point x="352" y="283"/>
      <point x="352" y="266" type="curve" smooth="yes"/>
      <point x="352" y="181"/>
      <point x="394" y="127"/>
      <point x="485" y="127" type="curve" smooth="yes"/>
      <point x="656" y="127"/>
      <point x="836" y="305"/>
      <point x="875" y="523" type="curve" smooth="yes"/>
      <point x="922" y="789" type="line"/>
      <point x="780" y="789" type="line" smooth="yes"/>
      <point x="735" y="789"/>
      <point x="721" y="807"/>
      <point x="729" y="857" type="curve" smooth="yes"/>
      <point x="738" y="907"/>
      <point x="759" y="925"/>
    </contour>
  </outline>
</glyph>
<glyph name="endescendercyrillic" format="1">
  <advance width="1228"/>
  <unicode hex="04A3"/>
  <outline>
    <contour>
      <point x="310" y="788" type="line"/>
      <point x="228" y="788" type="line" smooth="yes"/>
      <point x="205" y="788"/>
      <point x="190" y="793"/>
      <point x="182" y="803" type="curve" smooth="yes"/>
      <point x="174" y="813"/>
      <point x="173" y="831"/>
      <point x="177" y="856" type="curve" smooth="yes"/>
      <point x="181" y="881"/>
      <point x="190" y="899"/>
      <point x="201" y="909" type="curve" smooth="yes"/>
      <point x="212" y="919"/>
      <point x="229" y="924"/>
      <point x="252" y="924" type="curve" smooth="yes"/>
      <point x="421" y="924" type="line" smooth="yes"/>
      <point x="466" y="924"/>
      <point x="481" y="906"/>
      <point x="472" y="856" type="curve" smooth="yes"/>
      <point x="414" y="525" type="line"/>
      <point x="898" y="525" type="line"/>
      <point x="944" y="788" type="line"/>
      <point x="862" y="788" type="line" smooth="yes"/>
      <point x="839" y="788"/>
      <point x="824" y="793"/>
      <point x="816" y="803" type="curve" smooth="yes"/>
      <point x="808" y="813"/>
      <point x="807" y="831"/>
      <point x="811" y="856" type="curve" smooth="yes"/>
      <point x="815" y="881"/>
      <point x="824" y="899"/>
      <point x="835" y="909" type="curve" smooth="yes"/>
      <point x="846" y="919"/>
      <point x="863" y="924"/>
      <point x="886" y="924" type="curve" smooth="yes"/>
      <point x="1055" y="924" type="line" smooth="yes"/>
      <point x="1100" y="924"/>
      <point x="1114.82" y="906.031"/>
      <point x="1106" y="856" type="curve" smooth="yes"/>
      <point x="979" y="136" type="line"/>
      <point x="1099" y="136" type="line" smooth="yes"/>
      <point x="1121" y="136"/>
      <point x="1137" y="131"/>
      <point x="1145" y="121" type="curve" smooth="yes"/>
      <point x="1153" y="111"/>
      <point x="1154.67" y="93.3333"/>
      <point x="1150" y="68" type="curve" smooth="yes"/>
      <point x="1097" y="-234" type="line" smooth="yes"/>
      <point x="1093" y="-257.333"/>
      <point x="1084.67" y="-274"/>
      <point x="1072" y="-284" type="curve" smooth="yes"/>
      <point x="1059.33" y="-294"/>
      <point x="1039" y="-299"/>
      <point x="1011" y="-299" type="curve" smooth="yes"/>
      <point x="983" y="-299"/>
      <point x="964.333" y="-294"/>
      <point x="955" y="-284" type="curve" smooth="yes"/>
      <point x="945.667" y="-274"/>
      <point x="942.876" y="-256.978"/>
      <point x="947" y="-234" type="curve" smooth="yes"/>
      <point x="989" y="0" type="line"/>
      <point x="869" y="0" type="line" smooth="yes"/>
      <point x="824" y="0"/>
      <point x="808.118" y="17.9795"/>
      <point x="817" y="68" type="curve" smooth="yes"/>
      <point x="874" y="389" type="line"/>
      <point x="390" y="389" type="line"/>
      <point x="331" y="55" type="line" smooth="yes"/>
      <point x="322.878" y="9.02148"/>
      <point x="299" y="-10"/>
      <point x="246" y="-10" type="curve" smooth="yes"/>
      <point x="244" y="-10" type="line" smooth="yes"/>
      <point x="188" y="-10"/>
      <point x="173" y="9"/>
      <point x="181" y="55" type="curve" smooth="yes"/>
    </contour>
  </outline>
</glyph>
<glyph name="Decyrillic.bgr" format="1">
  <advance width="1228"/>
  <outline>
    <contour>
      <point x="92" y="68" type="line" smooth="yes"/>
      <point x="96" y="93"/>
      <point x="105" y="111"/>
      <point x="116" y="121" type="curve" smooth="yes"/>
      <point x="127" y="131"/>
      <point x="144" y="136"/>
      <point x="167" y="136" type="curve" smooth="yes"/>
      <point x="170" y="136" type="line"/>
      <point x="662" y="1051" type="line"/>
      <point x="475" y="1051" type="line" smooth="yes"/>
      <point x="430" y="1051"/>
      <point x="415" y="1069"/>
      <point x="424" y="1119" type="curve" smooth="yes"/>
      <point x="433" y="1169"/>
      <point x="454" y="1187"/>
      <point x="499" y="1187" type="curve" smooth="yes"/>
      <point x="866" y="1187" type="line" smooth="yes"/>
      <point x="919" y="1187"/>
      <point x="948" y="1168"/>
      <point x="956" y="1122" type="curve" smooth="yes"/>
      <point x="1135" y="136" type="line"/>
      <point x="1154" y="136" type="line" smooth="yes"/>
      <point x="1177" y="136"/>
      <point x="1192" y="131"/>
      <point x="1200" y="121" type="curve" smooth="yes"/>
      <point x="1208" y="111"/>
      <point x="1209" y="93"/>
      <point x="1205" y="68" type="curve" smooth="yes"/>
      <point x="1153" y="-226" type="line" smooth="yes"/>
      <point x="1149" y="-249"/>
      <point x="1141" y="-266"/>
      <point x="1128" y="-276" type="curve" smooth="yes"/>
      <point x="1115" y="-286"/>
      <point x="1095" y="-291"/>
      <point x="1067" y="-291" type="curve" smooth="yes"/>
      <point x="1039" y="-291"/>
      <point x="1020" y="-286"/>
      <point x="1011" y="-276" type="curve" smooth="yes"/>
      <point x="1002" y="-266"/>
      <point x="999" y="-249"/>
      <point x="1003" y="-226" type="curve" smooth="yes"/>
      <point x="1043" y="0" type="line"/>
      <point x="230" y="0" type="line"/>
      <point x="190" y="-226" type="line" smooth="yes"/>
      <point x="186" y="-249"/>
      <point x="178" y="-266"/>
      <point x="165" y="-276" type="curve" smooth="yes"/>
      <point x="152" y="-286"/>
      <point x="132" y="-291"/>
      <point x="104" y="-291" type="curve" smooth="yes"/>
      <point x="76" y="-291"/>
      <point x="57" y="-286"/>
      <point x="48" y="-276" type="curve" smooth="yes"/>
      <point x="39" y="-266"/>
      <point x="36" y="-249"/>
      <point x="40" y="-226" type="curve" smooth="yes"/>
    </contour>
    <contour>
      <point x="327" y="136" type="line"/>
      <point x="977" y="136" type="line"/>
      <point x="824" y="1051" type="line"/>
      <point x="805" y="1051" type="line"/>
    </contour>
  </outline>
</glyph>
<glyph name="Elcyrillic.bgr" format="1">
  <advance width="1228"/>
  <outline>
    <contour>
      <point x="22" y="68" type="curve" smooth="yes"/>
      <point x="13" y="18"/>
      <point x="28" y="0"/>
      <point x="73" y="0" type="curve" smooth="yes"/>
      <point x="407" y="0" type="line" smooth="yes"/>
      <point x="452" y="0"/>
      <point x="473" y="18"/>
      <point x="482" y="68" type="curve" smooth="yes"/>
      <point x="491" y="118"/>
      <point x="476" y="136"/>
      <point x="431" y="136" type="curve" smooth="yes"/>
      <point x="310" y="136" type="line"/>
      <point x="788" y="1051" type="line"/>
      <point x="807" y="1051" type="line"/>
      <point x="960" y="136" type="line"/>
      <point x="825" y="136" type="line" smooth="yes"/>
      <point x="780" y="136"/>
      <point x="759" y="118"/>
      <point x="750" y="68" type="curve" smooth="yes"/>
      <point x="741" y="18"/>
      <point x="756" y="0"/>
      <point x="801" y="0" type="curve" smooth="yes"/>
      <point x="1155" y="0" type="line" smooth="yes"/>
      <point x="1200" y="0"/>
      <point x="1221" y="18"/>
      <point x="1230" y="68" type="curve" smooth="yes"/>
      <point x="1239" y="118"/>
      <point x="1224" y="136"/>
      <point x="1179" y="136" type="curve" smooth="yes"/>
      <point x="1118" y="136" type="line"/>
      <point x="939" y="1122" type="line" smooth="yes"/>
      <point x="931" y="1168"/>
      <point x="902" y="1187"/>
      <point x="849" y="1187" type="curve" smooth="yes"/>
      <point x="482" y="1187" type="line" smooth="yes"/>
      <point x="437" y="1187"/>
      <point x="416" y="1169"/>
      <point x="407" y="1119" type="curve" smooth="yes"/>
      <point x="398" y="1069"/>
      <point x="413" y="1051"/>
      <point x="458" y="1051" type="curve" smooth="yes"/>
      <point x="645" y="1051" type="line"/>
      <point x="153" y="136" type="line"/>
      <point x="97" y="136" type="line" smooth="yes"/>
      <point x="52" y="136"/>
      <point x="31" y="118"/>
    </contour>
  </outline>
</glyph>
<glyph name="Zhecyrillic.bgr" format="1">
  <advance width="1228"/>
  <outline>
    <contour>
      <point x="18" y="68" type="curve" smooth="yes"/>
      <point x="27" y="118"/>
      <point x="48" y="136"/>
      <point x="93" y="136" type="curve" smooth="yes"/>
      <point x="139" y="136"/>
      <point x="168" y="174"/>
      <point x="194" y="221" type="curve" smooth="yes"/>
      <point x="246" y="316"/>
      <point x="271" y="400"/>
      <point x="341" y="513" type="curve" smooth="yes"/>
      <point x="397" y="604"/>
      <point x="419" y="640"/>
      <point x="509" y="648" type="curve"/>
      <point x="288" y="1051" type="line"/>
      <point x="275" y="1051" type="line" smooth="yes"/>
      <point x="231" y="1051"/>
      <point x="215" y="1069"/>
      <point x="224" y="1119" type="curve" smooth="yes"/>
      <point x="233" y="1169"/>
      <point x="254" y="1187"/>
      <point x="299" y="1187" type="curve" smooth="yes"/>
      <point x="511" y="1187" type="line" smooth="yes"/>
      <point x="556" y="1187"/>
      <point x="571" y="1169"/>
      <point x="562" y="1119" type="curve" smooth="yes"/>
      <point x="553" y="1069"/>
      <point x="532" y="1051"/>
      <point x="487" y="1051" type="curve" smooth="yes"/>
      <point x="453" y="1051" type="line"/>
      <point x="658" y="676" type="line"/>
      <point x="724" y="1051" type="line"/>
      <point x="682" y="1051" type="line" smooth="yes"/>
      <point x="659" y="1051"/>
      <point x="644" y="1056"/>
      <point x="636" y="1066" type="curve" smooth="yes"/>
      <point x="628" y="1076"/>
      <point x="627" y="1094"/>
      <point x="631" y="1119" type="curve" smooth="yes"/>
      <point x="635" y="1144"/>
      <point x="644" y="1162"/>
      <point x="655" y="1172" type="curve" smooth="yes"/>
      <point x="666" y="1182"/>
      <point x="683" y="1187"/>
      <point x="706" y="1187" type="curve" smooth="yes"/>
      <point x="940" y="1187" type="line" smooth="yes"/>
      <point x="963" y="1187"/>
      <point x="978" y="1182"/>
      <point x="986" y="1172" type="curve" smooth="yes"/>
      <point x="994" y="1162"/>
      <point x="995" y="1144"/>
      <point x="991" y="1119" type="curve" smooth="yes"/>
      <point x="987" y="1094"/>
      <point x="978" y="1076"/>
      <point x="967" y="1066" type="curve" smooth="yes"/>
      <point x="956" y="1056"/>
      <point x="939" y="1051"/>
      <point x="916" y="1051" type="curve" smooth="yes"/>
      <point x="874" y="1051" type="line"/>
      <point x="808" y="676" type="line"/>
      <point x="1145" y="1051" type="line"/>
      <point x="1111" y="1051" type="line" smooth="yes"/>
      <point x="1066" y="1051"/>
      <point x="1051" y="1069"/>
      <point x="1060" y="1119" type="curve" smooth="yes"/>
      <point x="1069" y="1169"/>
      <point x="1090" y="1187"/>
      <point x="1135" y="1187" type="curve" smooth="yes"/>
      <point x="1347" y="1187" type="line" smooth="yes"/>
      <point x="1392" y="1187"/>
      <point x="1407" y="1169"/>
      <point x="1398" y="1119" type="curve" smooth="yes"/>
      <point x="1389" y="1069"/>
      <point x="1367" y="1051"/>
      <point x="1323" y="1051" type="curve" smooth="yes"/>
      <point x="1310" y="1051" type="line"/>
      <point x="947" y="648" type="line"/>
      <point x="1034" y="640"/>
      <point x="1043" y="604"/>
      <point x="1067" y="513" type="curve" smooth="yes"/>
      <point x="1097" y="400"/>
      <point x="1094" y="316"/>
      <point x="1112" y="221" type="curve" smooth="yes"/>
      <point x="1121" y="174"/>
      <point x="1137" y="136"/>
      <point x="1183" y="136" type="curve" smooth="yes"/>
      <point x="1228" y="136"/>
      <point x="1243" y="118"/>
      <point x="1234" y="68" type="curve" smooth="yes"/>
      <point x="1225" y="18"/>
      <point x="1204" y="0"/>
      <point x="1159" y="0" type="curve" smooth="yes"/>
      <point x="1077" y="0" type="line" smooth="yes"/>
      <point x="1024" y="0"/>
      <point x="993" y="89"/>
      <point x="982" y="172" type="curve" smooth="yes"/>
      <point x="970" y="264"/>
      <point x="965" y="346"/>
      <point x="943" y="439" type="curve" smooth="yes"/>
      <point x="931" y="491"/>
      <point x="907" y="516"/>
      <point x="875" y="516" type="curve" smooth="yes"/>
      <point x="840" y="516"/>
      <point x="815" y="497"/>
      <point x="768" y="447" type="curve"/>
      <point x="713" y="136" type="line"/>
      <point x="755" y="136" type="line" smooth="yes"/>
      <point x="778" y="136"/>
      <point x="793" y="131"/>
      <point x="801" y="121" type="curve" smooth="yes"/>
      <point x="809" y="111"/>
      <point x="810" y="93"/>
      <point x="806" y="68" type="curve" smooth="yes"/>
      <point x="802" y="43"/>
      <point x="793" y="25"/>
      <point x="782" y="15" type="curve" smooth="yes"/>
      <point x="771" y="5"/>
      <point x="754" y="0"/>
      <point x="731" y="0" type="curve" smooth="yes"/>
      <point x="497" y="0" type="line" smooth="yes"/>
      <point x="474" y="0"/>
      <point x="459" y="5"/>
      <point x="451" y="15" type="curve" smooth="yes"/>
      <point x="443" y="25"/>
      <point x="442" y="43"/>
      <point x="446" y="68" type="curve" smooth="yes"/>
      <point x="450" y="93"/>
      <point x="459" y="111"/>
      <point x="470" y="121" type="curve" smooth="yes"/>
      <point x="481" y="131"/>
      <point x="498" y="136"/>
      <point x="521" y="136" type="curve" smooth="yes"/>
      <point x="563" y="136" type="line"/>
      <point x="618" y="447" type="line"/>
      <point x="588" y="497"/>
      <point x="570" y="516"/>
      <point x="535" y="516" type="curve" smooth="yes"/>
      <point x="503" y="516"/>
      <point x="469" y="491"/>
      <point x="439" y="439" type="curve" smooth="yes"/>
      <point x="385" y="346"/>
      <point x="350" y="264"/>
      <point x="306" y="172" type="curve" smooth="yes"/>
      <point x="266" y="89"/>
      <point x="204" y="0"/>
      <point x="151" y="0" type="curve" smooth="yes"/>
      <point x="69" y="0" type="line" smooth="yes"/>
      <point x="24" y="0"/>
      <point x="9" y="18"/>
    </contour>
  </outline>
</glyph>
<glyph name="acute.cyr" format="1">
  <advance width="1228"/>
  <outline>
    <contour>
      <point x="1008" y="1363" type="line" smooth="yes"/>
      <point x="1016.67" y="1367.67"/>
      <point x="1024.83" y="1371"/>
      <point x="1032.5" y="1373" type="curve" smooth="yes"/>
      <point x="1040.17" y="1375"/>
      <point x="1047.83" y="1374.33"/>
      <point x="1055.5" y="1371" type="curve" smooth="yes"/>
      <point x="1063.17" y="1367.67"/>
      <point x="1071.33" y="1361.17"/>
      <point x="1080" y="1351.5" type="curve" smooth="yes"/>
      <point x="1088.67" y="1341.83"/>
      <point x="1098.33" y="1327.67"/>
      <point x="1109" y="1309" type="curve" smooth="yes"/>
      <point x="1128.33" y="1273.67"/>
      <point x="1136.67" y="1248"/>
      <point x="1134" y="1232" type="curve" smooth="yes"/>
      <point x="1131.33" y="1216"/>
      <point x="1123" y="1206"/>
      <point x="1109" y="1202" type="curve" smooth="yes"/>
      <point x="628" y="1039" type="line" smooth="yes"/>
      <point x="615.333" y="1035"/>
      <point x="604.167" y="1036.5"/>
      <point x="594.5" y="1043.5" type="curve" smooth="yes"/>
      <point x="584.833" y="1050.5"/>
      <point x="577.667" y="1059.67"/>
      <point x="573" y="1071" type="curve" smooth="yes"/>
      <point x="568.333" y="1082.33"/>
      <point x="567.5" y="1093.83"/>
      <point x="570.5" y="1105.5" type="curve" smooth="yes"/>
      <point x="573.5" y="1117.17"/>
      <point x="580.667" y="1126.33"/>
      <point x="592" y="1133" type="curve" smooth="yes"/>
    </contour>
  </outline>
</glyph>
<glyph name="becyrillic.mkd" format="1">
  <advance width="1228"/>
  <outline>
    <contour>
      <point x="336" y="442" type="curve" smooth="yes"/>
      <point x="328" y="396"/>
      <point x="329" y="354"/>
      <point x="340" y="315" type="curve" smooth="yes"/>
      <point x="351" y="276"/>
      <point x="368" y="243"/>
      <point x="394" y="215" type="curve" smooth="yes"/>
      <point x="420" y="187"/>
      <point x="454" y="166"/>
      <point x="495" y="150" type="curve" smooth="yes"/>
      <point x="536" y="134"/>
      <point x="583" y="126"/>
      <point x="636" y="126" type="curve" smooth="yes"/>
      <point x="689" y="126"/>
      <point x="738" y="134"/>
      <point x="785" y="150" type="curve" smooth="yes"/>
      <point x="832" y="166"/>
      <point x="873" y="187"/>
      <point x="909" y="215" type="curve" smooth="yes"/>
      <point x="945" y="243"/>
      <point x="976" y="276"/>
      <point x="1000" y="315" type="curve" smooth="yes"/>
      <point x="1024" y="354"/>
      <point x="1040" y="396"/>
      <point x="1048" y="442" type="curve" smooth="yes"/>
      <point x="1056" y="488"/>
      <point x="1055" y="530"/>
      <point x="1044" y="569" type="curve" smooth="yes"/>
      <point x="1033" y="608"/>
      <point x="1015" y="641"/>
      <point x="989" y="669" type="curve" smooth="yes"/>
      <point x="963" y="697"/>
      <point x="930" y="718"/>
      <point x="889" y="734" type="curve" smooth="yes"/>
      <point x="848" y="750"/>
      <point x="801" y="758"/>
      <point x="748" y="758" type="curve" smooth="yes"/>
      <point x="695" y="758"/>
      <point x="644" y="750"/>
      <point x="598" y="734" type="curve" smooth="yes"/>
      <point x="552" y="718"/>
      <point x="510" y="697"/>
      <point x="474" y="669" type="curve" smooth="yes"/>
      <point x="438" y="641"/>
      <point x="408" y="608"/>
      <point x="384" y="569" type="curve" smooth="yes"/>
      <point x="360" y="530"/>
      <point x="344" y="488"/>
    </contour>
    <contour>
      <point x="178" y="442" type="curve" smooth="yes"/>
      <point x="190" y="509"/>
      <point x="214" y="571"/>
      <point x="250" y="628" type="curve" smooth="yes"/>
      <point x="286" y="685"/>
      <point x="330" y="735"/>
      <point x="383" y="776" type="curve" smooth="yes"/>
      <point x="401" y="790"/>
      <point x="419" y="801"/>
      <point x="438" y="813" type="curve"/>
      <point x="404" y="839"/>
      <point x="377" y="876"/>
      <point x="356" y="922" type="curve" smooth="yes"/>
      <point x="341" y="955"/>
      <point x="377" y="1016"/>
      <point x="397" y="1041" type="curve" smooth="yes"/>
      <point x="444" y="1099"/>
      <point x="490" y="1127"/>
      <point x="549" y="1148" type="curve" smooth="yes"/>
      <point x="605" y="1168"/>
      <point x="666" y="1179"/>
      <point x="731" y="1179" type="curve" smooth="yes"/>
      <point x="770" y="1179"/>
      <point x="804" y="1177"/>
      <point x="835" y="1173" type="curve" smooth="yes"/>
      <point x="866" y="1169"/>
      <point x="897" y="1167"/>
      <point x="929" y="1167" type="curve" smooth="yes"/>
      <point x="954" y="1167"/>
      <point x="979" y="1169"/>
      <point x="1006" y="1174" type="curve" smooth="yes"/>
      <point x="1033" y="1179"/>
      <point x="1063" y="1192"/>
      <point x="1097" y="1214" type="curve" smooth="yes"/>
      <point x="1110" y="1223"/>
      <point x="1123" y="1224"/>
      <point x="1137" y="1220" type="curve" smooth="yes"/>
      <point x="1151" y="1216"/>
      <point x="1161" y="1205"/>
      <point x="1169" y="1186" type="curve" smooth="yes"/>
      <point x="1177" y="1169"/>
      <point x="1180" y="1153"/>
      <point x="1178" y="1138" type="curve" smooth="yes"/>
      <point x="1176" y="1123"/>
      <point x="1166" y="1109"/>
      <point x="1149" y="1098" type="curve" smooth="yes"/>
      <point x="1102" y="1067"/>
      <point x="1061" y="1047"/>
      <point x="1025" y="1038" type="curve" smooth="yes"/>
      <point x="989" y="1029"/>
      <point x="956" y="1024"/>
      <point x="924" y="1024" type="curve" smooth="yes"/>
      <point x="904" y="1024"/>
      <point x="884" y="1025"/>
      <point x="865" y="1027" type="curve" smooth="yes"/>
      <point x="846" y="1029"/>
      <point x="826" y="1031"/>
      <point x="806" y="1033" type="curve" smooth="yes"/>
      <point x="786" y="1035"/>
      <point x="766" y="1037"/>
      <point x="745" y="1039" type="curve" smooth="yes"/>
      <point x="724" y="1041"/>
      <point x="701" y="1042"/>
      <point x="676" y="1042" type="curve" smooth="yes"/>
      <point x="649" y="1042"/>
      <point x="624" y="1041"/>
      <point x="596" y="1033" type="curve" smooth="yes"/>
      <point x="569" y="1025"/>
      <point x="526" y="1010"/>
      <point x="515" y="976" type="curve" smooth="yes"/>
      <point x="504" y="943"/>
      <point x="529" y="916"/>
      <point x="553" y="906" type="curve" smooth="yes"/>
      <point x="577" y="896"/>
      <point x="602" y="891"/>
      <point x="629" y="891" type="curve" smooth="yes"/>
      <point x="630" y="891"/>
      <point x="631" y="891"/>
      <point x="632" y="891" type="curve" smooth="yes"/>
      <point x="678" y="901"/>
      <point x="725" y="906"/>
      <point x="774" y="906" type="curve" smooth="yes"/>
      <point x="848" y="906"/>
      <point x="914" y="895"/>
      <point x="973" y="872" type="curve" smooth="yes"/>
      <point x="1032" y="849"/>
      <point x="1080" y="817"/>
      <point x="1118" y="776" type="curve" smooth="yes"/>
      <point x="1156" y="735"/>
      <point x="1184" y="685"/>
      <point x="1200" y="628" type="curve" smooth="yes"/>
      <point x="1216" y="571"/>
      <point x="1218" y="509"/>
      <point x="1206" y="442" type="curve" smooth="yes"/>
      <point x="1194" y="375"/>
      <point x="1170" y="313"/>
      <point x="1134" y="256" type="curve" smooth="yes"/>
      <point x="1098" y="199"/>
      <point x="1054" y="149"/>
      <point x="1001" y="108" type="curve" smooth="yes"/>
      <point x="948" y="67"/>
      <point x="888" y="35"/>
      <point x="821" y="12" type="curve" smooth="yes"/>
      <point x="754" y="-11"/>
      <point x="684" y="-22"/>
      <point x="610" y="-22" type="curve" smooth="yes"/>
      <point x="536" y="-22"/>
      <point x="470" y="-10"/>
      <point x="411" y="13" type="curve" smooth="yes"/>
      <point x="352" y="36"/>
      <point x="304" y="69"/>
      <point x="266" y="111" type="curve" smooth="yes"/>
      <point x="228" y="153"/>
      <point x="201" y="204"/>
      <point x="185" y="263" type="curve" smooth="yes"/>
      <point x="169" y="322"/>
      <point x="165" y="370"/>
    </contour>
  </outline>
</glyph>
<glyph name="breve.cyr" format="1">
  <advance width="1228"/>
  <outline>
    <contour>
      <point x="725" y="1198" type="curve" smooth="yes"/>
      <point x="789" y="1198"/>
      <point x="842.667" y="1208"/>
      <point x="886" y="1228" type="curve" smooth="yes"/>
      <point x="929.333" y="1248"/>
      <point x="966.333" y="1282.33"/>
      <point x="997" y="1331" type="curve" smooth="yes"/>
      <point x="1002.33" y="1338.33"/>
      <point x="1008.67" y="1343.5"/>
      <point x="1016" y="1346.5" type="curve" smooth="yes"/>
      <point x="1023.33" y="1349.5"/>
      <point x="1031.33" y="1351"/>
      <point x="1040" y="1351" type="curve" smooth="yes"/>
      <point x="1048.67" y="1351"/>
      <point x="1057.17" y="1349.5"/>
      <point x="1065.5" y="1346.5" type="curve" smooth="yes"/>
      <point x="1073.83" y="1343.5"/>
      <point x="1081" y="1339.33"/>
      <point x="1087" y="1334" type="curve" smooth="yes"/>
      <point x="1093" y="1328.67"/>
      <point x="1097.17" y="1322.33"/>
      <point x="1099.5" y="1315" type="curve" smooth="yes"/>
      <point x="1101.83" y="1307.67"/>
      <point x="1101.33" y="1299.67"/>
      <point x="1098" y="1291" type="curve" smooth="yes"/>
      <point x="1084" y="1255"/>
      <point x="1064.5" y="1222.33"/>
      <point x="1039.5" y="1193" type="curve" smooth="yes"/>
      <point x="1014.5" y="1163.67"/>
      <point x="985" y="1138.67"/>
      <point x="951" y="1118" type="curve" smooth="yes"/>
      <point x="917" y="1097.33"/>
      <point x="878.667" y="1081.5"/>
      <point x="836" y="1070.5" type="curve" smooth="yes"/>
      <point x="793.333" y="1059.5"/>
      <point x="747.667" y="1054"/>
      <point x="699" y="1054" type="curve" smooth="yes"/>
      <point x="600.333" y="1054"/>
      <point x="524" y="1075.33"/>
      <point x="470" y="1118" type="curve" smooth="yes"/>
      <point x="416" y="1160.67"/>
      <point x="387.333" y="1218.33"/>
      <point x="384" y="1291" type="curve" smooth="yes"/>
      <point x="383.333" y="1299.67"/>
      <point x="385.5" y="1307.67"/>
      <point x="390.5" y="1315" type="curve" smooth="yes"/>
      <point x="395.5" y="1322.33"/>
      <point x="402" y="1328.67"/>
      <point x="410" y="1334" type="curve" smooth="yes"/>
      <point x="418" y="1339.33"/>
      <point x="426.833" y="1343.5"/>
      <point x="436.5" y="1346.5" type="curve" smooth="yes"/>
      <point x="446.167" y="1349.5"/>
      <point x="455.333" y="1351"/>
      <point x="464" y="1351" type="curve" smooth="yes"/>
      <point x="472.667" y="1351"/>
      <point x="480.167" y="1349.5"/>
      <point x="486.5" y="1346.5" type="curve" smooth="yes"/>
      <point x="492.833" y="1343.5"/>
      <point x="497" y="1338.33"/>
      <point x="499" y="1331" type="curve" smooth="yes"/>
      <point x="512.333" y="1282.33"/>
      <point x="537.333" y="1248"/>
      <point x="574" y="1228" type="curve" smooth="yes"/>
      <point x="610.667" y="1208"/>
      <point x="661" y="1198"/>
    </contour>
  </outline>
</glyph>
<glyph name="dieresis.cyr" format="1">
  <advance width="1228"/>
  <outline>
    <contour>
      <point x="409" y="1195" type="curve" smooth="yes"/>
      <point x="411.667" y="1211.67"/>
      <point x="417.667" y="1227.67"/>
      <point x="427" y="1243" type="curve" smooth="yes"/>
      <point x="436.333" y="1258.33"/>
      <point x="447.833" y="1271.67"/>
      <point x="461.5" y="1283" type="curve" smooth="yes"/>
      <point x="475.167" y="1294.33"/>
      <point x="490" y="1303.33"/>
      <point x="506" y="1310" type="curve" smooth="yes"/>
      <point x="522" y="1316.67"/>
      <point x="538.667" y="1320"/>
      <point x="556" y="1320" type="curve" smooth="yes"/>
      <point x="572.667" y="1320"/>
      <point x="588" y="1316.67"/>
      <point x="602" y="1310" type="curve" smooth="yes"/>
      <point x="616" y="1303.33"/>
      <point x="627.833" y="1294.33"/>
      <point x="637.5" y="1283" type="curve" smooth="yes"/>
      <point x="647.167" y="1271.67"/>
      <point x="653.833" y="1258.33"/>
      <point x="657.5" y="1243" type="curve" smooth="yes"/>
      <point x="661.167" y="1227.67"/>
      <point x="661.667" y="1211.67"/>
      <point x="659" y="1195" type="curve" smooth="yes"/>
      <point x="655.667" y="1177.67"/>
      <point x="649.5" y="1161.5"/>
      <point x="640.5" y="1146.5" type="curve" smooth="yes"/>
      <point x="631.5" y="1131.5"/>
      <point x="620.167" y="1118.33"/>
      <point x="606.5" y="1107" type="curve" smooth="yes"/>
      <point x="592.833" y="1095.67"/>
      <point x="577.833" y="1086.67"/>
      <point x="561.5" y="1080" type="curve" smooth="yes"/>
      <point x="545.167" y="1073.33"/>
      <point x="528.667" y="1070"/>
      <point x="512" y="1070" type="curve" smooth="yes"/>
      <point x="494.667" y="1070"/>
      <point x="479.167" y="1073.33"/>
      <point x="465.5" y="1080" type="curve" smooth="yes"/>
      <point x="451.833" y="1086.67"/>
      <point x="440.167" y="1095.67"/>
      <point x="430.5" y="1107" type="curve" smooth="yes"/>
      <point x="420.833" y="1118.33"/>
      <point x="414" y="1131.5"/>
      <point x="410" y="1146.5" type="curve" smooth="yes"/>
      <point x="406" y="1161.5"/>
      <point x="405.667" y="1177.67"/>
    </contour>
    <contour>
      <point x="849" y="1195" type="curve" smooth="yes"/>
      <point x="851.667" y="1211.67"/>
      <point x="857.667" y="1227.67"/>
      <point x="867" y="1243" type="curve" smooth="yes"/>
      <point x="876.333" y="1258.33"/>
      <point x="887.833" y="1271.67"/>
      <point x="901.5" y="1283" type="curve" smooth="yes"/>
      <point x="915.167" y="1294.33"/>
      <point x="930" y="1303.33"/>
      <point x="946" y="1310" type="curve" smooth="yes"/>
      <point x="962" y="1316.67"/>
      <point x="978.667" y="1320"/>
      <point x="996" y="1320" type="curve" smooth="yes"/>
      <point x="1012.67" y="1320"/>
      <point x="1028" y="1316.67"/>
      <point x="1042" y="1310" type="curve" smooth="yes"/>
      <point x="1056" y="1303.33"/>
      <point x="1067.83" y="1294.33"/>
      <point x="1077.5" y="1283" type="curve" smooth="yes"/>
      <point x="1087.17" y="1271.67"/>
      <point x="1093.83" y="1258.33"/>
      <point x="1097.5" y="1243" type="curve" smooth="yes"/>
      <point x="1101.17" y="1227.67"/>
      <point x="1101.67" y="1211.67"/>
      <point x="1099" y="1195" type="curve" smooth="yes"/>
      <point x="1095.67" y="1177.67"/>
      <point x="1089.5" y="1161.5"/>
      <point x="1080.5" y="1146.5" type="curve" smooth="yes"/>
      <point x="1071.5" y="1131.5"/>
      <point x="1060.17" y="1118.33"/>
      <point x="1046.5" y="1107" type="curve" smooth="yes"/>
      <point x="1032.83" y="1095.67"/>
      <point x="1017.83" y="1086.67"/>
      <point x="1001.5" y="1080" type="curve" smooth="yes"/>
      <point x="985.167" y="1073.33"/>
      <point x="968.667" y="1070"/>
      <point x="952" y="1070" type="curve" smooth="yes"/>
      <point x="934.667" y="1070"/>
      <point x="919.167" y="1073.33"/>
      <point x="905.5" y="1080" type="curve" smooth="yes"/>
      <point x="891.833" y="1086.67"/>
      <point x="880.167" y="1095.67"/>
      <point x="870.5" y="1107" type="curve" smooth="yes"/>
      <point x="860.833" y="1118.33"/>
      <point x="854" y="1131.5"/>
      <point x="850" y="1146.5" type="curve" smooth="yes"/>
      <point x="846" y="1161.5"/>
      <point x="845.667" y="1177.67"/>
    </contour>
  </outline>
</glyph>
<glyph name="grave.cyr" format="1">
  <advance width="1228"/>
  <outline>
    <contour>
      <point x="878" y="1133" type="line" smooth="yes"/>
      <point x="889.333" y="1126.33"/>
      <point x="896.5" y="1117.17"/>
      <point x="899.5" y="1105.5" type="curve" smooth="yes"/>
      <point x="902.5" y="1093.83"/>
      <point x="901.667" y="1082.33"/>
      <point x="897" y="1071" type="curve" smooth="yes"/>
      <point x="892.333" y="1059.67"/>
      <point x="885.167" y="1050.5"/>
      <point x="875.5" y="1043.5" type="curve" smooth="yes"/>
      <point x="865.833" y="1036.5"/>
      <point x="854.667" y="1035"/>
      <point x="842" y="1039" type="curve" smooth="yes"/>
      <point x="361" y="1202" type="line" smooth="yes"/>
      <point x="347" y="1206"/>
      <point x="338.667" y="1216"/>
      <point x="336" y="1232" type="curve" smooth="yes"/>
      <point x="333.333" y="1248"/>
      <point x="341.667" y="1273.67"/>
      <point x="361" y="1309" type="curve" smooth="yes"/>
      <point x="371.667" y="1327.67"/>
      <point x="381.333" y="1341.83"/>
      <point x="390" y="1351.5" type="curve" smooth="yes"/>
      <point x="398.667" y="1361.17"/>
      <point x="406.833" y="1367.67"/>
      <point x="414.5" y="1371" type="curve" smooth="yes"/>
      <point x="422.167" y="1374.33"/>
      <point x="429.833" y="1375"/>
      <point x="437.5" y="1373" type="curve" smooth="yes"/>
      <point x="445.167" y="1371"/>
      <point x="453.333" y="1367.67"/>
      <point x="462" y="1363" type="curve" smooth="yes"/>
    </contour>
  </outline>
</glyph>
<glyph name="hardsigncyrillic.bgr" format="1">
  <advance width="1228"/>
  <outline>
    <contour>
      <point x="205" y="554" type="curve" smooth="yes"/>
      <point x="258" y="856" type="line" smooth="yes"/>
      <point x="262" y="881"/>
      <point x="271" y="899"/>
      <point x="282" y="909" type="curve" smooth="yes"/>
      <point x="293" y="919"/>
      <point x="310" y="924"/>
      <point x="333" y="924" type="curve" smooth="yes"/>
      <point x="632" y="924" type="line" smooth="yes"/>
      <point x="677" y="924"/>
      <point x="692" y="906"/>
      <point x="683" y="856" type="curve" smooth="yes"/>
      <point x="630" y="555" type="line"/>
      <point x="642" y="567"/>
      <point x="655" y="580"/>
      <point x="674" y="596" type="curve" smooth="yes"/>
      <point x="693" y="612"/>
      <point x="716" y="626"/>
      <point x="740" y="640" type="curve" smooth="yes"/>
      <point x="764" y="654"/>
      <point x="790" y="666"/>
      <point x="819" y="675" type="curve" smooth="yes"/>
      <point x="848" y="684"/>
      <point x="869" y="689"/>
      <point x="896" y="689" type="curve" smooth="yes"/>
      <point x="942" y="689"/>
      <point x="982" y="681"/>
      <point x="1016" y="666" type="curve" smooth="yes"/>
      <point x="1050" y="651"/>
      <point x="1079" y="629"/>
      <point x="1100" y="599" type="curve" smooth="yes"/>
      <point x="1121" y="569"/>
      <point x="1134" y="532"/>
      <point x="1140" y="488" type="curve" smooth="yes"/>
      <point x="1146" y="444"/>
      <point x="1143" y="392"/>
      <point x="1133" y="333" type="curve" smooth="yes"/>
      <point x="1123" y="274"/>
      <point x="1105" y="222"/>
      <point x="1080" y="178" type="curve" smooth="yes"/>
      <point x="1055" y="134"/>
      <point x="1025" y="97"/>
      <point x="988" y="67" type="curve" smooth="yes"/>
      <point x="951" y="37"/>
      <point x="909" y="15"/>
      <point x="861" y="0" type="curve" smooth="yes"/>
      <point x="819" y="-13"/>
      <point x="773" y="-22"/>
      <point x="724" y="-22" type="curve" smooth="yes"/>
      <point x="675" y="-22"/>
      <point x="633" y="-13"/>
      <point x="595" y="0" type="curve" smooth="yes"/>
      <point x="553" y="15"/>
      <point x="519" y="37"/>
      <point x="492" y="67" type="curve" smooth="yes"/>
      <point x="465" y="97"/>
      <point x="447" y="134"/>
      <point x="438" y="178" type="curve" smooth="yes"/>
      <point x="429" y="222"/>
      <point x="431" y="274"/>
      <point x="441" y="333" type="curve" smooth="yes"/>
      <point x="521" y="788" type="line"/>
      <point x="396" y="788" type="line"/>
      <point x="355" y="554" type="line" smooth="yes"/>
      <point x="351" y="531"/>
      <point x="342" y="514"/>
      <point x="329" y="504" type="curve" smooth="yes"/>
      <point x="316" y="494"/>
      <point x="296" y="489"/>
      <point x="268" y="489" type="curve" smooth="yes"/>
      <point x="240" y="489"/>
      <point x="221" y="494"/>
      <point x="212" y="504" type="curve" smooth="yes"/>
      <point x="203" y="514"/>
      <point x="201" y="531"/>
    </contour>
    <contour>
      <point x="591" y="333" type="line" smooth="yes"/>
      <point x="579" y="265"/>
      <point x="585" y="207"/>
      <point x="610" y="170" type="curve" smooth="yes"/>
      <point x="635" y="134"/>
      <point x="680" y="115"/>
      <point x="744" y="115" type="curve" smooth="yes"/>
      <point x="808" y="115"/>
      <point x="861" y="134"/>
      <point x="898" y="170" type="curve" smooth="yes"/>
      <point x="937" y="207"/>
      <point x="963" y="265"/>
      <point x="975" y="333" type="curve" smooth="yes"/>
      <point x="987" y="401"/>
      <point x="982" y="453"/>
      <point x="962" y="488" type="curve" smooth="yes"/>
      <point x="942" y="523"/>
      <point x="905" y="541"/>
      <point x="849" y="541" type="curve" smooth="yes"/>
      <point x="824" y="541"/>
      <point x="795" y="536"/>
      <point x="769" y="526" type="curve" smooth="yes"/>
      <point x="743" y="516"/>
      <point x="721" y="505"/>
      <point x="699" y="490" type="curve" smooth="yes"/>
      <point x="677" y="475"/>
      <point x="659" y="458"/>
      <point x="642" y="441" type="curve" smooth="yes"/>
      <point x="625" y="424"/>
      <point x="613" y="407"/>
      <point x="601" y="391" type="curve"/>
    </contour>
  </outline>
</glyph>
<glyph name="iucyrillic.bgr" format="1">
  <advance width="1228"/>
  <outline>
    <contour>
      <point x="152" y="55" type="curve" smooth="yes"/>
      <point x="349.36" y="1176" type="line"/>
      <point x="307.36" y="1176" type="line" smooth="yes"/>
      <point x="285" y="1176"/>
      <point x="269.409" y="1181"/>
      <point x="261.506" y="1191" type="curve" smooth="yes"/>
      <point x="253.602" y="1201"/>
      <point x="251.885" y="1218.67"/>
      <point x="256.351" y="1244" type="curve" smooth="yes"/>
      <point x="260.817" y="1269.33"/>
      <point x="268.766" y="1287"/>
      <point x="280.196" y="1297" type="curve" smooth="yes"/>
      <point x="291.626" y="1307"/>
      <point x="308.341" y="1312"/>
      <point x="331.341" y="1312" type="curve" smooth="yes"/>
      <point x="460.341" y="1312" type="line" smooth="yes"/>
      <point x="505.341" y="1312"/>
      <point x="520.167" y="1294"/>
      <point x="511.351" y="1244" type="curve" smooth="yes"/>
      <point x="384.571" y="525" type="line"/>
      <point x="485.571" y="525" type="line"/>
      <point x="502.504" y="587"/>
      <point x="526.858" y="643.833"/>
      <point x="558.636" y="695.5" type="curve" smooth="yes"/>
      <point x="590.413" y="747.167"/>
      <point x="627.229" y="791.5"/>
      <point x="669.087" y="828.5" type="curve" smooth="yes"/>
      <point x="710.944" y="865.5"/>
      <point x="756.695" y="894.333"/>
      <point x="806.339" y="915" type="curve" smooth="yes"/>
      <point x="855.983" y="935.667"/>
      <point x="907.473" y="946"/>
      <point x="960.806" y="946" type="curve" smooth="yes"/>
      <point x="1018.14" y="946"/>
      <point x="1069.36" y="934"/>
      <point x="1114.46" y="910" type="curve" smooth="yes"/>
      <point x="1159.56" y="886"/>
      <point x="1196.32" y="852.5"/>
      <point x="1224.74" y="809.5" type="curve" smooth="yes"/>
      <point x="1253.15" y="766.5"/>
      <point x="1272.49" y="715.5"/>
      <point x="1282.76" y="656.5" type="curve" smooth="yes"/>
      <point x="1293.03" y="597.5"/>
      <point x="1291.92" y="532.667"/>
      <point x="1279.46" y="462" type="curve" smooth="yes"/>
      <point x="1267" y="391.333"/>
      <point x="1245.24" y="326.5"/>
      <point x="1214.17" y="267.5" type="curve" smooth="yes"/>
      <point x="1183.09" y="208.5"/>
      <point x="1145.77" y="157.5"/>
      <point x="1102.19" y="114.5" type="curve" smooth="yes"/>
      <point x="1058.61" y="71.5"/>
      <point x="1010.03" y="38"/>
      <point x="956.469" y="14" type="curve" smooth="yes"/>
      <point x="902.903" y="-10"/>
      <point x="847.454" y="-22"/>
      <point x="790.121" y="-22" type="curve" smooth="yes"/>
      <point x="738.121" y="-22"/>
      <point x="691.051" y="-12"/>
      <point x="648.91" y="8" type="curve" smooth="yes"/>
      <point x="606.771" y="28"/>
      <point x="571.236" y="56.167"/>
      <point x="542.311" y="92.5" type="curve" smooth="yes"/>
      <point x="513.384" y="128.833"/>
      <point x="491.857" y="172.167"/>
      <point x="477.732" y="222.5" type="curve" smooth="yes"/>
      <point x="463.607" y="272.833"/>
      <point x="458.561" y="328.333"/>
      <point x="462.591" y="389" type="curve"/>
      <point x="360.591" y="389" type="line"/>
      <point x="302" y="55" type="line" smooth="yes"/>
      <point x="293.933" y="9.01181"/>
      <point x="270" y="-10"/>
      <point x="217" y="-10" type="curve" smooth="yes"/>
      <point x="215" y="-10" type="line" smooth="yes"/>
      <point x="159" y="-10"/>
      <point x="143.904" y="9.01684"/>
    </contour>
    <contour>
      <point x="629.463" y="462" type="curve" smooth="yes"/>
      <point x="620.882" y="413.333"/>
      <point x="618.977" y="368.5"/>
      <point x="623.747" y="327.5" type="curve" smooth="yes"/>
      <point x="628.518" y="286.5"/>
      <point x="639.091" y="251"/>
      <point x="655.469" y="221" type="curve" smooth="yes"/>
      <point x="671.846" y="191"/>
      <point x="693.564" y="167.667"/>
      <point x="720.625" y="151" type="curve" smooth="yes"/>
      <point x="747.687" y="134.333"/>
      <point x="779.55" y="126"/>
      <point x="816.217" y="126" type="curve" smooth="yes"/>
      <point x="852.884" y="126"/>
      <point x="887.687" y="134.333"/>
      <point x="920.625" y="151" type="curve" smooth="yes"/>
      <point x="953.564" y="167.667"/>
      <point x="983.512" y="191"/>
      <point x="1010.47" y="221" type="curve" smooth="yes"/>
      <point x="1037.42" y="251"/>
      <point x="1060.52" y="286.5"/>
      <point x="1079.75" y="327.5" type="curve" smooth="yes"/>
      <point x="1098.98" y="368.5"/>
      <point x="1112.88" y="413.333"/>
      <point x="1121.46" y="462" type="curve" smooth="yes"/>
      <point x="1130.04" y="510.667"/>
      <point x="1131.95" y="555.5"/>
      <point x="1127.18" y="596.5" type="curve" smooth="yes"/>
      <point x="1122.41" y="637.5"/>
      <point x="1111.83" y="673"/>
      <point x="1095.46" y="703" type="curve" smooth="yes"/>
      <point x="1079.08" y="733"/>
      <point x="1057.36" y="756.333"/>
      <point x="1030.3" y="773" type="curve" smooth="yes"/>
      <point x="1003.24" y="789.667"/>
      <point x="971.376" y="798"/>
      <point x="934.709" y="798" type="curve" smooth="yes"/>
      <point x="898.042" y="798"/>
      <point x="863.239" y="789.667"/>
      <point x="830.301" y="773" type="curve" smooth="yes"/>
      <point x="797.362" y="756.333"/>
      <point x="767.415" y="733"/>
      <point x="740.458" y="703" type="curve" smooth="yes"/>
      <point x="713.501" y="673"/>
      <point x="690.408" y="637.5"/>
      <point x="671.179" y="596.5" type="curve" smooth="yes"/>
      <point x="651.949" y="555.5"/>
      <point x="638.044" y="510.667"/>
    </contour>
  </outline>
</glyph>
<glyph name="softsigncyrillic.bgr" format="1">
  <advance width="1228"/>
  <outline>
    <contour>
      <point x="629" y="114" type="curve" smooth="yes"/>
      <point x="739" y="114" type="line" smooth="yes"/>
      <point x="806" y="114"/>
      <point x="859" y="133"/>
      <point x="898" y="170" type="curve" smooth="yes"/>
      <point x="937" y="207"/>
      <point x="963" y="265"/>
      <point x="975" y="333" type="curve" smooth="yes"/>
      <point x="987" y="401"/>
      <point x="978" y="453"/>
      <point x="950" y="488" type="curve" smooth="yes"/>
      <point x="922" y="523"/>
      <point x="872" y="541"/>
      <point x="799" y="541" type="curve" smooth="yes"/>
      <point x="766" y="541"/>
      <point x="727" y="536"/>
      <point x="694" y="526" type="curve" smooth="yes"/>
      <point x="661" y="516"/>
      <point x="632" y="505"/>
      <point x="604" y="490" type="curve" smooth="yes"/>
      <point x="576" y="475"/>
      <point x="553" y="458"/>
      <point x="532" y="441" type="curve" smooth="yes"/>
      <point x="511" y="424"/>
      <point x="496" y="407"/>
      <point x="481" y="391" type="curve"/>
      <point x="471" y="333" type="line" smooth="yes"/>
      <point x="459" y="265"/>
      <point x="465" y="207"/>
      <point x="490" y="170" type="curve" smooth="yes"/>
      <point x="515" y="133"/>
      <point x="562" y="114"/>
    </contour>
    <contour>
      <point x="623" y="-22" type="line" smooth="yes"/>
      <point x="567" y="-22"/>
      <point x="517" y="-15"/>
      <point x="475" y="0" type="curve" smooth="yes"/>
      <point x="433" y="15"/>
      <point x="399" y="37"/>
      <point x="372" y="67" type="curve" smooth="yes"/>
      <point x="345" y="97"/>
      <point x="327" y="134"/>
      <point x="318" y="178" type="curve" smooth="yes"/>
      <point x="309" y="222"/>
      <point x="311" y="274"/>
      <point x="321" y="333" type="curve" smooth="yes"/>
      <point x="401" y="788" type="line"/>
      <point x="319" y="788" type="line" smooth="yes"/>
      <point x="296" y="788"/>
      <point x="282" y="793"/>
      <point x="274" y="803" type="curve" smooth="yes"/>
      <point x="266" y="813"/>
      <point x="264" y="831"/>
      <point x="268" y="856" type="curve" smooth="yes"/>
      <point x="272" y="881"/>
      <point x="280" y="899"/>
      <point x="292" y="909" type="curve" smooth="yes"/>
      <point x="304" y="919"/>
      <point x="320" y="924"/>
      <point x="343" y="924" type="curve" smooth="yes"/>
      <point x="512" y="924" type="line" smooth="yes"/>
      <point x="557" y="924"/>
      <point x="572" y="906"/>
      <point x="563" y="856" type="curve" smooth="yes"/>
      <point x="510" y="555" type="line"/>
      <point x="524" y="567"/>
      <point x="540" y="580"/>
      <point x="563" y="596" type="curve" smooth="yes"/>
      <point x="586" y="612"/>
      <point x="613" y="626"/>
      <point x="642" y="640" type="curve" smooth="yes"/>
      <point x="671" y="654"/>
      <point x="702" y="666"/>
      <point x="737" y="675" type="curve" smooth="yes"/>
      <point x="772" y="684"/>
      <point x="797" y="689"/>
      <point x="830" y="689" type="curve" smooth="yes"/>
      <point x="886" y="689"/>
      <point x="936" y="681"/>
      <point x="978" y="666" type="curve" smooth="yes"/>
      <point x="1020" y="651"/>
      <point x="1055" y="629"/>
      <point x="1082" y="599" type="curve" smooth="yes"/>
      <point x="1109" y="569"/>
      <point x="1126" y="532"/>
      <point x="1135" y="488" type="curve" smooth="yes"/>
      <point x="1144" y="444"/>
      <point x="1143" y="392"/>
      <point x="1133" y="333" type="curve" smooth="yes"/>
      <point x="1123" y="274"/>
      <point x="1105" y="222"/>
      <point x="1080" y="178" type="curve" smooth="yes"/>
      <point x="1055" y="134"/>
      <point x="1025" y="97"/>
      <point x="988" y="67" type="curve" smooth="yes"/>
      <point x="951" y="37"/>
      <point x="909" y="15"/>
      <point x="861" y="0" type="curve" smooth="yes"/>
      <point x="813" y="-15"/>
      <point x="761" y="-22"/>
      <point x="705" y="-22" type="curve" smooth="yes"/>
    </contour>
  </outline>
</glyph>
<glyph name="vecyrillic.bgr" format="1">
  <advance width="1228"/>
  <outline>
    <contour>
      <point x="336" y="442" type="curve" smooth="yes"/>
      <point x="328" y="396"/>
      <point x="329" y="354"/>
      <point x="340" y="315" type="curve" smooth="yes"/>
      <point x="351" y="276"/>
      <point x="368" y="243"/>
      <point x="394" y="215" type="curve" smooth="yes"/>
      <point x="420" y="187"/>
      <point x="454" y="166"/>
      <point x="495" y="150" type="curve" smooth="yes"/>
      <point x="536" y="134"/>
      <point x="583" y="126"/>
      <point x="636" y="126" type="curve" smooth="yes"/>
      <point x="689" y="126"/>
      <point x="738" y="134"/>
      <point x="785" y="150" type="curve" smooth="yes"/>
      <point x="832" y="166"/>
      <point x="873" y="187"/>
      <point x="909" y="215" type="curve" smooth="yes"/>
      <point x="945" y="243"/>
      <point x="976" y="276"/>
      <point x="1000" y="315" type="curve" smooth="yes"/>
      <point x="1024" y="354"/>
      <point x="1040" y="396"/>
      <point x="1048" y="442" type="curve" smooth="yes"/>
      <point x="1056" y="488"/>
      <point x="1055" y="530"/>
      <point x="1044" y="569" type="curve" smooth="yes"/>
      <point x="1033" y="608"/>
      <point x="1015" y="641"/>
      <point x="989" y="669" type="curve" smooth="yes"/>
      <point x="963" y="697"/>
      <point x="930" y="718"/>
      <point x="889" y="734" type="curve" smooth="yes"/>
      <point x="848" y="750"/>
      <point x="801" y="758"/>
      <point x="748" y="758" type="curve" smooth="yes"/>
      <point x="695" y="758"/>
      <point x="644" y="750"/>
      <point x="598" y="734" type="curve" smooth="yes"/>
      <point x="552" y="718"/>
      <point x="510" y="697"/>
      <point x="474" y="669" type="curve" smooth="yes"/>
      <point x="438" y="641"/>
      <point x="408" y="608"/>
      <point x="384" y="569" type="curve" smooth="yes"/>
      <point x="360" y="530"/>
      <point x="344" y="488"/>
    </contour>
    <contour>
      <point x="784" y="1186" type="curve" smooth="yes"/>
      <point x="755" y="1186"/>
      <point x="646" y="1172"/>
      <point x="566" y="1096" type="curve" smooth="yes"/>
      <point x="502" y="1035"/>
      <point x="436" y="892"/>
      <point x="406" y="792" type="curve"/>
      <point x="417" y="799"/>
      <point x="427" y="806"/>
      <point x="438" y="813" type="curve" smooth="yes"/>
      <point x="509" y="857"/>
      <point x="556" y="872"/>
      <point x="632" y="891" type="curve" smooth="yes"/>
      <point x="677" y="903"/>
      <point x="725" y="906"/>
      <point x="774" y="906" type="curve" smooth="yes"/>
      <point x="800" y="906"/>
      <point x="908" y="910"/>
      <point x="933" y="914" type="curve" smooth="yes"/>
      <point x="958" y="918"/>
      <point x="982" y="926"/>
      <point x="1002" y="936" type="curve" smooth="yes"/>
      <point x="1022" y="946"/>
      <point x="1040" y="958"/>
      <point x="1054" y="974" type="curve" smooth="yes"/>
      <point x="1068" y="990"/>
      <point x="1077" y="1011"/>
      <point x="1081" y="1035" type="curve" smooth="yes"/>
      <point x="1085" y="1060"/>
      <point x="1082" y="1081"/>
      <point x="1071" y="1100" type="curve" smooth="yes"/>
      <point x="1060" y="1119"/>
      <point x="1042" y="1135"/>
      <point x="1018" y="1148" type="curve" smooth="yes"/>
      <point x="994" y="1161"/>
      <point x="965" y="1170"/>
      <point x="931" y="1176" type="curve" smooth="yes"/>
      <point x="897" y="1182"/>
      <point x="842" y="1186"/>
    </contour>
    <contour>
      <point x="1044" y="836" type="curve"/>
      <point x="1072" y="819"/>
      <point x="1096" y="799"/>
      <point x="1118" y="776" type="curve" smooth="yes"/>
      <point x="1156" y="735"/>
      <point x="1184" y="685"/>
      <point x="1200" y="628" type="curve" smooth="yes"/>
      <point x="1216" y="571"/>
      <point x="1218" y="509"/>
      <point x="1206" y="442" type="curve" smooth="yes"/>
      <point x="1194" y="375"/>
      <point x="1170" y="313"/>
      <point x="1134" y="256" type="curve" smooth="yes"/>
      <point x="1098" y="199"/>
      <point x="1054" y="149"/>
      <point x="1001" y="108" type="curve" smooth="yes"/>
      <point x="948" y="67"/>
      <point x="888" y="35"/>
      <point x="821" y="12" type="curve" smooth="yes"/>
      <point x="754" y="-11"/>
      <point x="684" y="-22"/>
      <point x="610" y="-22" type="curve" smooth="yes"/>
      <point x="536" y="-22"/>
      <point x="470" y="-10"/>
      <point x="411" y="13" type="curve" smooth="yes"/>
      <point x="352" y="36"/>
      <point x="304" y="69"/>
      <point x="266" y="111" type="curve" smooth="yes"/>
      <point x="228" y="153"/>
      <point x="201" y="204"/>
      <point x="185" y="263" type="curve" smooth="yes"/>
      <point x="169" y="322"/>
      <point x="165" y="370"/>
      <point x="178" y="442" type="curve" smooth="yes"/>
      <point x="213" y="638"/>
      <point x="248" y="804"/>
      <point x="295" y="942" type="curve" smooth="yes"/>
      <point x="332" y="1052"/>
      <point x="443" y="1206"/>
      <point x="589" y="1276" type="curve" smooth="yes"/>
      <point x="642" y="1302"/>
      <point x="725" y="1334"/>
      <point x="817" y="1334" type="curve" smooth="yes"/>
      <point x="899" y="1334"/>
      <point x="978" y="1328"/>
      <point x="1024" y="1317" type="curve" smooth="yes"/>
      <point x="1070" y="1306"/>
      <point x="1111" y="1288"/>
      <point x="1146" y="1264" type="curve" smooth="yes"/>
      <point x="1181" y="1240"/>
      <point x="1208" y="1209"/>
      <point x="1226" y="1171" type="curve" smooth="yes"/>
      <point x="1244" y="1133"/>
      <point x="1248" y="1088"/>
      <point x="1239" y="1035" type="curve" smooth="yes"/>
      <point x="1231" y="990"/>
      <point x="1215" y="952"/>
      <point x="1187" y="924" type="curve" smooth="yes"/>
      <point x="1139" y="876"/>
      <point x="1084" y="852"/>
    </contour>
  </outline>
</glyph>
<glyph name="zecyrillic.bgr" format="1">
  <advance width="1228"/>
  <outline>
    <contour>
      <point x="544" y="-410" type="curve" smooth="yes"/>
      <point x="467" y="-410"/>
      <point x="395" y="-400"/>
      <point x="326" y="-378" type="curve" smooth="yes"/>
      <point x="257" y="-356"/>
      <point x="195" y="-323"/>
      <point x="139" y="-279" type="curve" smooth="yes"/>
      <point x="124" y="-266"/>
      <point x="117" y="-251"/>
      <point x="117" y="-234" type="curve" smooth="yes"/>
      <point x="117" y="-217"/>
      <point x="126" y="-197"/>
      <point x="144" y="-174" type="curve" smooth="yes"/>
      <point x="163" y="-149"/>
      <point x="181" y="-136"/>
      <point x="197" y="-135" type="curve" smooth="yes"/>
      <point x="213" y="-134"/>
      <point x="228" y="-138"/>
      <point x="239" y="-149" type="curve" smooth="yes"/>
      <point x="280" y="-187"/>
      <point x="329" y="-215"/>
      <point x="385" y="-234" type="curve" smooth="yes"/>
      <point x="441" y="-253"/>
      <point x="503" y="-262"/>
      <point x="570" y="-262" type="curve" smooth="yes"/>
      <point x="679" y="-262"/>
      <point x="763" y="-242"/>
      <point x="824" y="-202" type="curve" smooth="yes"/>
      <point x="885" y="-162"/>
      <point x="928" y="-66"/>
      <point x="940" y="0" type="curve" smooth="yes"/>
      <point x="963" y="128"/>
      <point x="950" y="193"/>
      <point x="909" y="228" type="curve" smooth="yes"/>
      <point x="868" y="263"/>
      <point x="806" y="292"/>
      <point x="722" y="292" type="curve" smooth="yes"/>
      <point x="649" y="292" type="line" smooth="yes"/>
      <point x="626" y="292"/>
      <point x="612" y="297"/>
      <point x="604" y="307" type="curve" smooth="yes"/>
      <point x="596" y="317"/>
      <point x="594" y="335"/>
      <point x="598" y="360" type="curve" smooth="yes"/>
      <point x="602" y="385"/>
      <point x="611" y="403"/>
      <point x="622" y="413" type="curve" smooth="yes"/>
      <point x="633" y="423"/>
      <point x="650" y="428"/>
      <point x="673" y="428" type="curve" smooth="yes"/>
      <point x="728" y="428" type="line" smooth="yes"/>
      <point x="809" y="428"/>
      <point x="872" y="444"/>
      <point x="918" y="476" type="curve" smooth="yes"/>
      <point x="964" y="508"/>
      <point x="993" y="554"/>
      <point x="1004" y="616" type="curve" smooth="yes"/>
      <point x="1009" y="644"/>
      <point x="1007" y="669"/>
      <point x="998" y="692" type="curve" smooth="yes"/>
      <point x="989" y="715"/>
      <point x="974" y="734"/>
      <point x="953" y="750" type="curve" smooth="yes"/>
      <point x="932" y="766"/>
      <point x="906" y="778"/>
      <point x="873" y="786" type="curve" smooth="yes"/>
      <point x="840" y="794"/>
      <point x="803" y="798"/>
      <point x="760" y="798" type="curve" smooth="yes"/>
      <point x="712" y="798"/>
      <point x="669" y="791"/>
      <point x="630" y="778" type="curve" smooth="yes"/>
      <point x="591" y="765"/>
      <point x="557" y="747"/>
      <point x="529" y="724" type="curve" smooth="yes"/>
      <point x="501" y="701"/>
      <point x="478" y="675"/>
      <point x="461" y="645" type="curve" smooth="yes"/>
      <point x="444" y="615"/>
      <point x="432" y="584"/>
      <point x="426" y="551" type="curve" smooth="yes"/>
      <point x="422" y="528"/>
      <point x="414" y="511"/>
      <point x="401" y="501" type="curve" smooth="yes"/>
      <point x="388" y="491"/>
      <point x="368" y="486"/>
      <point x="340" y="486" type="curve" smooth="yes"/>
      <point x="312" y="486"/>
      <point x="293" y="491"/>
      <point x="284" y="501" type="curve" smooth="yes"/>
      <point x="275" y="511"/>
      <point x="272" y="528"/>
      <point x="276" y="551" type="curve" smooth="yes"/>
      <point x="334" y="881" type="line" smooth="yes"/>
      <point x="338" y="904"/>
      <point x="347" y="921"/>
      <point x="359" y="931" type="curve" smooth="yes"/>
      <point x="371" y="941"/>
      <point x="392" y="946"/>
      <point x="421" y="946" type="curve" smooth="yes"/>
      <point x="450" y="946"/>
      <point x="468" y="941"/>
      <point x="477" y="931" type="curve" smooth="yes"/>
      <point x="486" y="921"/>
      <point x="488" y="904"/>
      <point x="484" y="881" type="curve" smooth="yes"/>
      <point x="474" y="823" type="line"/>
      <point x="493" y="842"/>
      <point x="516" y="860"/>
      <point x="542" y="875" type="curve" smooth="yes"/>
      <point x="568" y="890"/>
      <point x="596" y="904"/>
      <point x="625" y="914" type="curve" smooth="yes"/>
      <point x="654" y="924"/>
      <point x="683" y="932"/>
      <point x="714" y="938" type="curve" smooth="yes"/>
      <point x="745" y="944"/>
      <point x="775" y="946"/>
      <point x="805" y="946" type="curve" smooth="yes"/>
      <point x="869" y="946"/>
      <point x="925" y="938"/>
      <point x="973" y="921" type="curve" smooth="yes"/>
      <point x="1021" y="904"/>
      <point x="1060" y="881"/>
      <point x="1090" y="852" type="curve" smooth="yes"/>
      <point x="1120" y="823"/>
      <point x="1141" y="788"/>
      <point x="1153" y="748" type="curve" smooth="yes"/>
      <point x="1165" y="708"/>
      <point x="1166" y="663"/>
      <point x="1158" y="616" type="curve" smooth="yes"/>
      <point x="1147" y="556"/>
      <point x="1123" y="506"/>
      <point x="1086" y="465" type="curve" smooth="yes"/>
      <point x="1049" y="424"/>
      <point x="1005" y="392"/>
      <point x="951" y="368" type="curve"/>
      <point x="1013" y="343"/>
      <point x="1056" y="296"/>
      <point x="1085" y="248" type="curve" smooth="yes"/>
      <point x="1114" y="200"/>
      <point x="1120" y="122"/>
      <point x="1098" y="0" type="curve" smooth="yes"/>
      <point x="1088" y="-54"/>
      <point x="1062" y="-147"/>
      <point x="1032" y="-192" type="curve" smooth="yes"/>
      <point x="1002" y="-237"/>
      <point x="964" y="-276"/>
      <point x="917" y="-308" type="curve" smooth="yes"/>
      <point x="870" y="-340"/>
      <point x="815" y="-365"/>
      <point x="752" y="-383" type="curve" smooth="yes"/>
      <point x="689" y="-401"/>
      <point x="620" y="-410"/>
    </contour>
  </outline>
</glyph>
<glyph name="zhecyrillic.bgr" format="1">
  <advance width="1228"/>
  <outline>
    <contour>
      <point x="436" y="507" type="curve"/>
      <point x="249" y="788" type="line"/>
      <point x="233" y="788" type="line" smooth="yes"/>
      <point x="195" y="788"/>
      <point x="173" y="806"/>
      <point x="182" y="856" type="curve" smooth="yes"/>
      <point x="191" y="906"/>
      <point x="219" y="924"/>
      <point x="257" y="924" type="curve" smooth="yes"/>
      <point x="472" y="924" type="line" smooth="yes"/>
      <point x="517" y="924"/>
      <point x="532" y="906"/>
      <point x="523" y="856" type="curve" smooth="yes"/>
      <point x="514" y="806"/>
      <point x="493" y="788"/>
      <point x="448" y="788" type="curve" smooth="yes"/>
      <point x="425" y="788" type="line"/>
      <point x="625" y="486" type="line"/>
      <point x="746" y="1176" type="line"/>
      <point x="703" y="1176" type="line" smooth="yes"/>
      <point x="680" y="1176"/>
      <point x="666" y="1181"/>
      <point x="658" y="1191" type="curve" smooth="yes"/>
      <point x="650" y="1201"/>
      <point x="648" y="1219"/>
      <point x="652" y="1244" type="curve" smooth="yes"/>
      <point x="656" y="1269"/>
      <point x="665" y="1287"/>
      <point x="676" y="1297" type="curve" smooth="yes"/>
      <point x="687" y="1307"/>
      <point x="704" y="1312"/>
      <point x="727" y="1312" type="curve" smooth="yes"/>
      <point x="857" y="1312" type="line" smooth="yes"/>
      <point x="902" y="1312"/>
      <point x="917" y="1294"/>
      <point x="908" y="1244" type="curve" smooth="yes"/>
      <point x="774" y="484" type="line"/>
      <point x="1082" y="788" type="line"/>
      <point x="1059" y="788" type="line" smooth="yes"/>
      <point x="1014" y="788"/>
      <point x="999" y="806"/>
      <point x="1008" y="856" type="curve" smooth="yes"/>
      <point x="1017" y="906"/>
      <point x="1038" y="924"/>
      <point x="1083" y="924" type="curve" smooth="yes"/>
      <point x="1298" y="924" type="line" smooth="yes"/>
      <point x="1336" y="924"/>
      <point x="1358" y="906"/>
      <point x="1349" y="856" type="curve" smooth="yes"/>
      <point x="1340" y="806"/>
      <point x="1312" y="788"/>
      <point x="1274" y="788" type="curve" smooth="yes"/>
      <point x="1258" y="788" type="line"/>
      <point x="972" y="507" type="line"/>
      <point x="995" y="497"/>
      <point x="1013" y="482"/>
      <point x="1028" y="464" type="curve" smooth="yes"/>
      <point x="1047" y="441"/>
      <point x="1063" y="416"/>
      <point x="1074" y="388" type="curve" smooth="yes"/>
      <point x="1085" y="360"/>
      <point x="1094" y="331"/>
      <point x="1101" y="301" type="curve" smooth="yes"/>
      <point x="1108" y="271"/>
      <point x="1114" y="244"/>
      <point x="1120" y="220" type="curve" smooth="yes"/>
      <point x="1126" y="196"/>
      <point x="1134" y="176"/>
      <point x="1143" y="160" type="curve" smooth="yes"/>
      <point x="1152" y="144"/>
      <point x="1164" y="136"/>
      <point x="1180" y="136" type="curve" smooth="yes"/>
      <point x="1188" y="136" type="line" smooth="yes"/>
      <point x="1211" y="136"/>
      <point x="1226" y="131"/>
      <point x="1234" y="121" type="curve" smooth="yes"/>
      <point x="1242" y="111"/>
      <point x="1244" y="93"/>
      <point x="1239" y="68" type="curve" smooth="yes"/>
      <point x="1234" y="43"/>
      <point x="1227" y="25"/>
      <point x="1216" y="15" type="curve" smooth="yes"/>
      <point x="1205" y="5"/>
      <point x="1188" y="0"/>
      <point x="1165" y="0" type="curve" smooth="yes"/>
      <point x="1128" y="0" type="line" smooth="yes"/>
      <point x="1103" y="0"/>
      <point x="1082" y="6"/>
      <point x="1066" y="18" type="curve" smooth="yes"/>
      <point x="1050" y="30"/>
      <point x="1037" y="45"/>
      <point x="1026" y="64" type="curve" smooth="yes"/>
      <point x="1015" y="83"/>
      <point x="1007" y="106"/>
      <point x="1000" y="130" type="curve" smooth="yes"/>
      <point x="993" y="154"/>
      <point x="986" y="178"/>
      <point x="979" y="204" type="curve" smooth="yes"/>
      <point x="972" y="230"/>
      <point x="965" y="256"/>
      <point x="957" y="280" type="curve" smooth="yes"/>
      <point x="949" y="304"/>
      <point x="946" y="310"/>
      <point x="938" y="325" type="curve" smooth="yes"/>
      <point x="919" y="362"/>
      <point x="887" y="379"/>
      <point x="854" y="379" type="curve" smooth="yes"/>
      <point x="823" y="379"/>
      <point x="784" y="363"/>
      <point x="758" y="334" type="curve" smooth="yes"/>
      <point x="746" y="321" type="line"/>
      <point x="713" y="136" type="line"/>
      <point x="756" y="136" type="line" smooth="yes"/>
      <point x="779" y="136"/>
      <point x="794" y="131"/>
      <point x="802" y="121" type="curve" smooth="yes"/>
      <point x="810" y="111"/>
      <point x="812" y="93"/>
      <point x="807" y="68" type="curve" smooth="yes"/>
      <point x="805" y="57"/>
      <point x="803" y="46"/>
      <point x="799" y="38" type="curve" smooth="yes"/>
      <point x="795" y="28"/>
      <point x="790" y="20"/>
      <point x="784" y="15" type="curve" smooth="yes"/>
      <point x="773" y="5"/>
      <point x="756" y="0"/>
      <point x="733" y="0" type="curve" smooth="yes"/>
      <point x="732" y="0" type="line"/>
      <point x="497" y="0" type="line"/>
      <point x="496" y="0" type="line" smooth="yes"/>
      <point x="473" y="0"/>
      <point x="458" y="5"/>
      <point x="450" y="15" type="curve" smooth="yes"/>
      <point x="447" y="19"/>
      <point x="445" y="24"/>
      <point x="444" y="30" type="curve" smooth="yes"/>
      <point x="442" y="40"/>
      <point x="442" y="52"/>
      <point x="445" y="68" type="curve" smooth="yes"/>
      <point x="447" y="83"/>
      <point x="452" y="95"/>
      <point x="457" y="105" type="curve" smooth="yes"/>
      <point x="461" y="112"/>
      <point x="464" y="117"/>
      <point x="469" y="121" type="curve" smooth="yes"/>
      <point x="480" y="131"/>
      <point x="497" y="136"/>
      <point x="520" y="136" type="curve" smooth="yes"/>
      <point x="563" y="136" type="line"/>
      <point x="596" y="322" type="line"/>
      <point x="589" y="334" type="line" smooth="yes"/>
      <point x="572" y="362"/>
      <point x="540" y="379"/>
      <point x="509" y="379" type="curve" smooth="yes"/>
      <point x="476" y="379"/>
      <point x="439" y="362"/>
      <point x="406" y="325" type="curve" smooth="yes"/>
      <point x="393" y="310"/>
      <point x="387" y="304"/>
      <point x="371" y="280" type="curve" smooth="yes"/>
      <point x="354" y="256"/>
      <point x="338" y="230"/>
      <point x="322" y="204" type="curve" smooth="yes"/>
      <point x="306" y="178"/>
      <point x="291" y="154"/>
      <point x="276" y="130" type="curve" smooth="yes"/>
      <point x="261" y="106"/>
      <point x="244" y="83"/>
      <point x="227" y="64" type="curve" smooth="yes"/>
      <point x="210" y="45"/>
      <point x="190" y="30"/>
      <point x="170" y="18" type="curve" smooth="yes"/>
      <point x="150" y="6"/>
      <point x="127" y="0"/>
      <point x="102" y="0" type="curve" smooth="yes"/>
      <point x="65" y="0" type="line" smooth="yes"/>
      <point x="42" y="0"/>
      <point x="26" y="5"/>
      <point x="18" y="15" type="curve" smooth="yes"/>
      <point x="10" y="25"/>
      <point x="8" y="43"/>
      <point x="13" y="68" type="curve" smooth="yes"/>
      <point x="18" y="93"/>
      <point x="26" y="111"/>
      <point x="37" y="121" type="curve" smooth="yes"/>
      <point x="48" y="131"/>
      <point x="65" y="136"/>
      <point x="88" y="136" type="curve" smooth="yes"/>
      <point x="96" y="136" type="line" smooth="yes"/>
      <point x="111" y="136"/>
      <point x="126" y="144"/>
      <point x="140" y="160" type="curve" smooth="yes"/>
      <point x="154" y="176"/>
      <point x="169" y="196"/>
      <point x="184" y="220" type="curve" smooth="yes"/>
      <point x="199" y="244"/>
      <point x="216" y="271"/>
      <point x="233" y="301" type="curve" smooth="yes"/>
      <point x="250" y="331"/>
      <point x="270" y="360"/>
      <point x="291" y="388" type="curve" smooth="yes"/>
      <point x="312" y="416"/>
      <point x="337" y="441"/>
      <point x="364" y="464" type="curve" smooth="yes"/>
      <point x="386" y="482"/>
      <point x="409" y="497"/>
    </contour>
  </outline>
</glyph>
